<svg width="101" height="21" viewBox="0 0 101 21" fill="none" xmlns="http://www.w3.org/2000/svg">
<mask id="path-1-outside-1_546_18" maskUnits="userSpaceOnUse" x="-3" y="-2" width="105" height="24" fill="black">
<rect fill="white" x="-3" y="-2" width="105" height="24"/>
<path d="M0.225684 20L8.02568 2.5H12.0257L19.8507 20H15.6007L9.20068 4.55H10.8007L4.37568 20H0.225684ZM4.12568 16.25L5.20068 13.175H14.2007L15.3007 16.25H4.12568ZM22.6413 20V1.45H26.5413V20H22.6413ZM37.0858 20.2C35.9692 20.2 34.9692 19.9833 34.0858 19.55C33.2192 19.1167 32.5442 18.4583 32.0608 17.575C31.5775 16.675 31.3358 15.5333 31.3358 14.15V6.55H35.2358V13.575C35.2358 14.6917 35.4692 15.5167 35.9358 16.05C36.4192 16.5667 37.0942 16.825 37.9608 16.825C38.5608 16.825 39.0942 16.7 39.5608 16.45C40.0275 16.1833 40.3942 15.7833 40.6608 15.25C40.9275 14.7 41.0608 14.0167 41.0608 13.2V6.55H44.9608V20H41.2608V16.3L41.9358 17.375C41.4858 18.3083 40.8192 19.0167 39.9358 19.5C39.0692 19.9667 38.1192 20.2 37.0858 20.2ZM67.0489 6.35C68.1156 6.35 69.0573 6.56667 69.8739 7C70.7073 7.41667 71.3573 8.06667 71.8239 8.95C72.3073 9.81667 72.5489 10.9333 72.5489 12.3V20H68.6489V12.9C68.6489 11.8167 68.4239 11.0167 67.9739 10.5C67.5239 9.98333 66.8906 9.725 66.0739 9.725C65.5073 9.725 64.9989 9.85833 64.5489 10.125C64.0989 10.375 63.7489 10.7583 63.4989 11.275C63.2489 11.7917 63.1239 12.45 63.1239 13.25V20H59.2239V12.9C59.2239 11.8167 58.9989 11.0167 58.5489 10.5C58.1156 9.98333 57.4906 9.725 56.6739 9.725C56.1073 9.725 55.5989 9.85833 55.1489 10.125C54.6989 10.375 54.3489 10.7583 54.0989 11.275C53.8489 11.7917 53.7239 12.45 53.7239 13.25V20H49.8239V6.55H53.5489V10.225L52.8489 9.15C53.3156 8.23333 53.9739 7.54167 54.8239 7.075C55.6906 6.59167 56.6739 6.35 57.7739 6.35C59.0073 6.35 60.0823 6.66667 60.9989 7.3C61.9323 7.91667 62.5489 8.86667 62.8489 10.15L61.4739 9.775C61.9239 8.725 62.6406 7.89167 63.6239 7.275C64.6239 6.65833 65.7656 6.35 67.0489 6.35ZM85.4696 6.35C86.5363 6.35 87.4863 6.56667 88.3196 7C89.1696 7.41667 89.8363 8.06667 90.3196 8.95C90.803 9.81667 91.0446 10.9333 91.0446 12.3V20H87.1446V12.9C87.1446 11.8167 86.903 11.0167 86.4196 10.5C85.953 9.98333 85.2863 9.725 84.4196 9.725C83.803 9.725 83.2446 9.85833 82.7446 10.125C82.2613 10.375 81.878 10.7667 81.5946 11.3C81.328 11.8333 81.1946 12.5167 81.1946 13.35V20H77.2946V6.55H81.0196V10.275L80.3196 9.15C80.803 8.25 81.4946 7.55833 82.3946 7.075C83.2946 6.59167 84.3196 6.35 85.4696 6.35ZM95.8298 20V6.55H99.7298V20H95.8298ZM97.7798 4.675C97.0631 4.675 96.4798 4.46667 96.0298 4.05C95.5798 3.63333 95.3548 3.11667 95.3548 2.5C95.3548 1.88333 95.5798 1.36667 96.0298 0.949999C96.4798 0.533332 97.0631 0.324998 97.7798 0.324998C98.4965 0.324998 99.0798 0.524999 99.5298 0.925C99.9798 1.30833 100.205 1.80833 100.205 2.425C100.205 3.075 99.9798 3.61667 99.5298 4.05C99.0965 4.46667 98.5131 4.675 97.7798 4.675Z"/>
</mask>
<path d="M0.225684 20L-1.14439 19.3893L-2.08514 21.5H0.225684V20ZM8.02568 2.5V0.999999H7.052L6.65561 1.88934L8.02568 2.5ZM12.0257 2.5L13.395 1.88771L12.9981 0.999999H12.0257V2.5ZM19.8507 20V21.5H22.1645L21.22 19.3877L19.8507 20ZM15.6007 20L14.2149 20.5741L14.5984 21.5H15.6007V20ZM9.20068 4.55V3.05H6.95572L7.81488 5.12405L9.20068 4.55ZM10.8007 4.55L12.1857 5.12597L13.049 3.05H10.8007V4.55ZM4.37568 20V21.5H5.37643L5.7607 20.576L4.37568 20ZM4.12568 16.25L2.70972 15.755L2.01227 17.75H4.12568V16.25ZM5.20068 13.175V11.675H4.13605L3.78472 12.68L5.20068 13.175ZM14.2007 13.175L15.613 12.6698L15.2572 11.675H14.2007V13.175ZM15.3007 16.25V17.75H17.4304L16.713 15.7448L15.3007 16.25ZM1.59575 20.6107L9.39575 3.11066L6.65561 1.88934L-1.14439 19.3893L1.59575 20.6107ZM8.02568 4H12.0257V0.999999H8.02568V4ZM10.6563 3.11229L18.4813 20.6123L21.22 19.3877L13.395 1.88771L10.6563 3.11229ZM19.8507 18.5H15.6007V21.5H19.8507V18.5ZM16.9865 19.4259L10.5865 3.97594L7.81488 5.12405L14.2149 20.5741L16.9865 19.4259ZM9.20068 6.05H10.8007V3.05H9.20068V6.05ZM9.41567 3.97403L2.99067 19.424L5.7607 20.576L12.1857 5.12597L9.41567 3.97403ZM4.37568 18.5H0.225684V21.5H4.37568V18.5ZM5.54165 16.745L6.61665 13.67L3.78472 12.68L2.70972 15.755L5.54165 16.745ZM5.20068 14.675H14.2007V11.675H5.20068V14.675ZM12.7883 13.6802L13.8883 16.7552L16.713 15.7448L15.613 12.6698L12.7883 13.6802ZM15.3007 14.75H4.12568V17.75H15.3007V14.75ZM22.6413 20H21.1413V21.5H22.6413V20ZM22.6413 1.45V-0.0500011H21.1413V1.45H22.6413ZM26.5413 1.45H28.0413V-0.0500011H26.5413V1.45ZM26.5413 20V21.5H28.0413V20H26.5413ZM24.1413 20V1.45H21.1413V20H24.1413ZM22.6413 2.95H26.5413V-0.0500011H22.6413V2.95ZM25.0413 1.45V20H28.0413V1.45H25.0413ZM26.5413 18.5H22.6413V21.5H26.5413V18.5ZM34.0858 19.55L33.415 20.8917L33.4252 20.8967L34.0858 19.55ZM32.0608 17.575L30.7393 18.2847L30.7449 18.295L32.0608 17.575ZM31.3358 6.55V5.05H29.8358V6.55H31.3358ZM35.2358 6.55H36.7358V5.05H35.2358V6.55ZM35.9358 16.05L34.807 17.0378L34.8234 17.0565L34.8404 17.0747L35.9358 16.05ZM39.5608 16.45L40.2692 17.7722L40.2872 17.7625L40.305 17.7524L39.5608 16.45ZM40.6608 15.25L42.0025 15.9208L42.0066 15.9126L42.0106 15.9044L40.6608 15.25ZM41.0608 6.55V5.05H39.5608V6.55H41.0608ZM44.9608 6.55H46.4608V5.05H44.9608V6.55ZM44.9608 20V21.5H46.4608V20H44.9608ZM41.2608 20H39.7608V21.5H41.2608V20ZM41.2608 16.3L42.5312 15.5023L39.7608 11.0903V16.3H41.2608ZM41.9358 17.375L43.287 18.0264L43.6471 17.2796L43.2062 16.5773L41.9358 17.375ZM39.9358 19.5L40.647 20.8207L40.6559 20.8159L39.9358 19.5ZM37.0858 18.7C36.1671 18.7 35.398 18.5229 34.7465 18.2033L33.4252 20.8967C34.5403 21.4437 35.7712 21.7 37.0858 21.7V18.7ZM34.7567 18.2084C34.1745 17.9173 33.7195 17.4814 33.3767 16.855L30.7449 18.295C31.3689 19.4353 32.2639 20.3161 33.415 20.8916L34.7567 18.2084ZM33.3823 16.8653C33.0503 16.247 32.8358 15.3695 32.8358 14.15H29.8358C29.8358 15.6972 30.1047 17.103 30.7393 18.2847L33.3823 16.8653ZM32.8358 14.15V6.55H29.8358V14.15H32.8358ZM31.3358 8.05H35.2358V5.05H31.3358V8.05ZM33.7358 6.55V13.575H36.7358V6.55H33.7358ZM33.7358 13.575C33.7358 14.8563 33.9964 16.1114 34.807 17.0378L37.0647 15.0622C36.9419 14.9219 36.7358 14.5271 36.7358 13.575H33.7358ZM34.8404 17.0747C35.6694 17.9608 36.7794 18.325 37.9608 18.325V15.325C37.409 15.325 37.169 15.1725 37.0312 15.0253L34.8404 17.0747ZM37.9608 18.325C38.7746 18.325 39.557 18.1537 40.2692 17.7722L38.8525 15.1278C38.6313 15.2463 38.347 15.325 37.9608 15.325V18.325ZM40.305 17.7524C41.0566 17.3229 41.6184 16.6889 42.0025 15.9208L39.3192 14.5792C39.1699 14.8777 38.9984 15.0438 38.8166 15.1476L40.305 17.7524ZM42.0106 15.9044C42.4036 15.0938 42.5608 14.1707 42.5608 13.2H39.5608C39.5608 13.8626 39.4515 14.3062 39.3111 14.5956L42.0106 15.9044ZM42.5608 13.2V6.55H39.5608V13.2H42.5608ZM41.0608 8.05H44.9608V5.05H41.0608V8.05ZM43.4608 6.55V20H46.4608V6.55H43.4608ZM44.9608 18.5H41.2608V21.5H44.9608V18.5ZM42.7608 20V16.3H39.7608V20H42.7608ZM39.9905 17.0977L40.6655 18.1727L43.2062 16.5773L42.5312 15.5023L39.9905 17.0977ZM40.5847 16.7236C40.2664 17.3837 39.8162 17.8556 39.2158 18.1841L40.6559 20.8159C41.8221 20.1777 42.7053 19.2329 43.287 18.0264L40.5847 16.7236ZM39.2247 18.1793C38.5876 18.5224 37.8837 18.7 37.0858 18.7V21.7C38.3546 21.7 39.5508 21.411 40.647 20.8207L39.2247 18.1793ZM69.8739 7L69.1709 8.32502L69.1869 8.33353L69.2031 8.34164L69.8739 7ZM71.8239 8.95L70.4976 9.65068L70.5056 9.66573L70.5139 9.6806L71.8239 8.95ZM72.5489 20V21.5H74.0489V20H72.5489ZM68.6489 20H67.1489V21.5H68.6489V20ZM67.9739 10.5L69.105 9.51483L69.105 9.51483L67.9739 10.5ZM64.5489 10.125L65.2774 11.4362L65.2957 11.4261L65.3136 11.4154L64.5489 10.125ZM63.4989 11.275L64.8492 11.9283L64.8492 11.9283L63.4989 11.275ZM63.1239 20V21.5H64.6239V20H63.1239ZM59.2239 20H57.7239V21.5H59.2239V20ZM58.5489 10.5L57.3996 11.4639L57.4086 11.4746L57.4178 11.4852L58.5489 10.5ZM55.1489 10.125L55.8774 11.4362L55.8957 11.4261L55.9136 11.4154L55.1489 10.125ZM54.0989 11.275L55.4492 11.9283L55.4492 11.9283L54.0989 11.275ZM53.7239 20V21.5H55.2239V20H53.7239ZM49.8239 20H48.3239V21.5H49.8239V20ZM49.8239 6.55V5.05H48.3239V6.55H49.8239ZM53.5489 6.55H55.0489V5.05H53.5489V6.55ZM53.5489 10.225L52.2919 11.0435L55.0489 15.2775V10.225H53.5489ZM52.8489 9.15L51.5122 8.46947L51.1189 9.24204L51.5919 9.96851L52.8489 9.15ZM54.8239 7.075L55.5458 8.3899L55.5545 8.38505L54.8239 7.075ZM60.9989 7.3L60.1463 8.5341L60.1591 8.54293L60.172 8.5515L60.9989 7.3ZM62.8489 10.15L62.4543 11.5971L64.8825 12.2594L64.3095 9.80856L62.8489 10.15ZM61.4739 9.775L60.0952 9.18412L59.4162 10.7686L61.0793 11.2221L61.4739 9.775ZM63.6239 7.275L62.8366 5.99821L62.827 6.00421L63.6239 7.275ZM67.0489 7.85C67.9084 7.85 68.6019 8.02314 69.1709 8.32502L70.577 5.67498C69.5126 5.1102 68.3228 4.85 67.0489 4.85V7.85ZM69.2031 8.34164C69.7358 8.60796 70.166 9.02302 70.4976 9.65068L73.1502 8.24932C72.5485 7.11031 71.6788 6.22537 70.5447 5.65836L69.2031 8.34164ZM70.5139 9.6806C70.8344 10.2554 71.0489 11.0971 71.0489 12.3H74.0489C74.0489 10.7695 73.7801 9.37792 73.134 8.2194L70.5139 9.6806ZM71.0489 12.3V20H74.0489V12.3H71.0489ZM72.5489 18.5H68.6489V21.5H72.5489V18.5ZM70.1489 20V12.9H67.1489V20H70.1489ZM70.1489 12.9C70.1489 11.6541 69.8975 10.4247 69.105 9.51483L66.8428 11.4852C66.9504 11.6087 67.1489 11.9793 67.1489 12.9H70.1489ZM69.105 9.51483C68.3152 8.60798 67.233 8.225 66.0739 8.225V11.225C66.5482 11.225 66.7326 11.3587 66.8428 11.4852L69.105 9.51483ZM66.0739 8.225C65.2614 8.225 64.4849 8.41936 63.7842 8.83456L65.3136 11.4154C65.513 11.2973 65.7532 11.225 66.0739 11.225V8.225ZM63.8205 8.81376C63.0697 9.23085 62.5171 9.86027 62.1487 10.6217L64.8492 11.9283C64.9807 11.6564 65.1281 11.5192 65.2774 11.4362L63.8205 8.81376ZM62.1487 10.6217C61.7692 11.4059 61.6239 12.3074 61.6239 13.25H64.6239C64.6239 12.5926 64.7286 12.1774 64.8492 11.9283L62.1487 10.6217ZM61.6239 13.25V20H64.6239V13.25H61.6239ZM63.1239 18.5H59.2239V21.5H63.1239V18.5ZM60.7239 20V12.9H57.7239V20H60.7239ZM60.7239 12.9C60.7239 11.6541 60.4725 10.4247 59.68 9.51483L57.4178 11.4852C57.5254 11.6087 57.7239 11.9793 57.7239 12.9H60.7239ZM59.6982 9.53608C58.9198 8.60797 57.8312 8.225 56.6739 8.225V11.225C57.1499 11.225 57.3114 11.3587 57.3996 11.4639L59.6982 9.53608ZM56.6739 8.225C55.8614 8.225 55.0849 8.41936 54.3842 8.83456L55.9136 11.4154C56.113 11.2973 56.3532 11.225 56.6739 11.225V8.225ZM54.4205 8.81376C53.6697 9.23085 53.1171 9.86027 52.7487 10.6217L55.4492 11.9283C55.5807 11.6564 55.7281 11.5192 55.8774 11.4362L54.4205 8.81376ZM52.7487 10.6217C52.3692 11.4059 52.2239 12.3074 52.2239 13.25H55.2239C55.2239 12.5926 55.3286 12.1774 55.4492 11.9283L52.7487 10.6217ZM52.2239 13.25V20H55.2239V13.25H52.2239ZM53.7239 18.5H49.8239V21.5H53.7239V18.5ZM51.3239 20V6.55H48.3239V20H51.3239ZM49.8239 8.05H53.5489V5.05H49.8239V8.05ZM52.0489 6.55V10.225H55.0489V6.55H52.0489ZM54.8059 9.40649L54.1059 8.33149L51.5919 9.96851L52.2919 11.0435L54.8059 9.40649ZM54.1857 9.83052C54.5245 9.16503 54.9762 8.70258 55.5458 8.38987L54.102 5.76013C52.9716 6.38075 52.1067 7.30163 51.5122 8.46947L54.1857 9.83052ZM55.5545 8.38505C56.1743 8.0394 56.9013 7.85 57.7739 7.85V4.85C56.4465 4.85 55.2069 5.14394 54.0933 5.76495L55.5545 8.38505ZM57.7739 7.85C58.7366 7.85 59.5068 8.09229 60.1463 8.5341L61.8516 6.0659C60.6577 5.24104 59.2779 4.85 57.7739 4.85V7.85ZM60.172 8.5515C60.7296 8.9199 61.159 9.51033 61.3883 10.4914L64.3095 9.80856C63.9389 8.223 63.1349 6.91343 61.8258 6.0485L60.172 8.5515ZM63.2436 8.70285L61.8686 8.32785L61.0793 11.2221L62.4543 11.5971L63.2436 8.70285ZM62.8526 10.3659C63.1804 9.6012 63.6917 9.00307 64.4209 8.54579L62.827 6.00421C61.5895 6.78026 60.6675 7.8488 60.0952 9.18412L62.8526 10.3659ZM64.4113 8.55176C65.1529 8.09439 66.0171 7.85 67.0489 7.85V4.85C65.5141 4.85 64.0949 5.22227 62.8366 5.99824L64.4113 8.55176ZM88.3196 7L87.6276 8.33082L87.6434 8.33904L87.6594 8.34688L88.3196 7ZM90.3196 8.95L89.0037 9.67004L89.0096 9.6806L90.3196 8.95ZM91.0446 20V21.5H92.5446V20H91.0446ZM87.1446 20H85.6446V21.5H87.1446V20ZM86.4196 10.5L85.3065 11.5054L85.3153 11.5152L85.3242 11.5247L86.4196 10.5ZM82.7446 10.125L83.4338 11.4573L83.4422 11.453L83.4505 11.4485L82.7446 10.125ZM81.5946 11.3L80.27 10.5963L80.2613 10.6126L80.253 10.6292L81.5946 11.3ZM81.1946 20V21.5H82.6946V20H81.1946ZM77.2946 20H75.7946V21.5H77.2946V20ZM77.2946 6.55V5.05H75.7946V6.55H77.2946ZM81.0196 6.55H82.5196V5.05H81.0196V6.55ZM81.0196 10.275L79.746 11.0675L82.5196 15.525V10.275H81.0196ZM80.3196 9.15L78.9981 8.44031L78.5873 9.20525L79.046 9.94245L80.3196 9.15ZM82.3946 7.075L83.1043 8.39649L83.1043 8.39649L82.3946 7.075ZM85.4696 7.85C86.3284 7.85 87.0355 8.02292 87.6276 8.33082L89.0117 5.66917C87.9371 5.11042 86.7442 4.85 85.4696 4.85V7.85ZM87.6594 8.34688C88.2132 8.61837 88.659 9.04 89.0037 9.67002L91.6355 8.22998C91.0136 7.09333 90.126 6.21497 88.9799 5.65312L87.6594 8.34688ZM89.0096 9.6806C89.3302 10.2554 89.5446 11.0971 89.5446 12.3H92.5446C92.5446 10.7695 92.2758 9.37792 91.6297 8.2194L89.0096 9.6806ZM89.5446 12.3V20H92.5446V12.3H89.5446ZM91.0446 18.5H87.1446V21.5H91.0446V18.5ZM88.6446 20V12.9H85.6446V20H88.6446ZM88.6446 12.9C88.6446 11.6323 88.3669 10.3859 87.515 9.47526L85.3242 11.5247C85.439 11.6474 85.6446 12.001 85.6446 12.9H88.6446ZM87.5328 9.49457C86.7146 8.58871 85.5989 8.225 84.4196 8.225V11.225C84.9737 11.225 85.1913 11.378 85.3065 11.5054L87.5328 9.49457ZM84.4196 8.225C83.579 8.225 82.7748 8.40891 82.0387 8.80147L83.4505 11.4485C83.7145 11.3078 84.0269 11.225 84.4196 11.225V8.225ZM82.0555 8.79267C81.2719 9.19798 80.6799 9.82452 80.27 10.5963L82.9193 12.0037C83.076 11.7088 83.2507 11.552 83.4338 11.4573L82.0555 8.79267ZM80.253 10.6292C79.8492 11.4367 79.6946 12.3708 79.6946 13.35H82.6946C82.6946 12.6625 82.8067 12.2299 82.9363 11.9708L80.253 10.6292ZM79.6946 13.35V20H82.6946V13.35H79.6946ZM81.1946 18.5H77.2946V21.5H81.1946V18.5ZM78.7946 20V6.55H75.7946V20H78.7946ZM77.2946 8.05H81.0196V5.05H77.2946V8.05ZM79.5196 6.55V10.275H82.5196V6.55H79.5196ZM82.2932 9.48255L81.5932 8.35755L79.046 9.94245L79.746 11.0675L82.2932 9.48255ZM81.6411 9.85969C81.985 9.21929 82.4639 8.74041 83.1043 8.39649L81.6849 5.75351C80.5253 6.37626 79.6209 7.28071 78.9981 8.44031L81.6411 9.85969ZM83.1043 8.39649C83.7599 8.04442 84.5357 7.85 85.4696 7.85V4.85C84.1035 4.85 82.8294 5.13891 81.6849 5.75351L83.1043 8.39649ZM95.8298 20H94.3298V21.5H95.8298V20ZM95.8298 6.55V5.05H94.3298V6.55H95.8298ZM99.7298 6.55H101.23V5.05H99.7298V6.55ZM99.7298 20V21.5H101.23V20H99.7298ZM96.0298 4.05L95.0107 5.15064L95.0107 5.15064L96.0298 4.05ZM96.0298 0.949999L97.0489 2.05064L97.0489 2.05064L96.0298 0.949999ZM99.5298 0.925L98.5332 2.04611L98.5451 2.05661L98.5571 2.06686L99.5298 0.925ZM99.5298 4.05L100.569 5.13125L100.57 5.13048L99.5298 4.05ZM97.3298 20V6.55H94.3298V20H97.3298ZM95.8298 8.05H99.7298V5.05H95.8298V8.05ZM98.2298 6.55V20H101.23V6.55H98.2298ZM99.7298 18.5H95.8298V21.5H99.7298V18.5ZM97.7798 3.175C97.373 3.175 97.1755 3.06658 97.0489 2.94936L95.0107 5.15064C95.7841 5.86675 96.7532 6.175 97.7798 6.175V3.175ZM97.0489 2.94936C96.9074 2.81836 96.8548 2.70145 96.8548 2.5H93.8548C93.8548 3.53188 94.2522 4.4483 95.0107 5.15064L97.0489 2.94936ZM96.8548 2.5C96.8548 2.29855 96.9074 2.18164 97.0489 2.05064L95.0107 -0.150642C94.2522 0.551694 93.8548 1.46812 93.8548 2.5H96.8548ZM97.0489 2.05064C97.1755 1.93342 97.3731 1.825 97.7798 1.825V-1.175C96.7532 -1.175 95.7841 -0.866755 95.0107 -0.150641L97.0489 2.05064ZM97.7798 1.825C98.2028 1.825 98.4083 1.93508 98.5332 2.04611L100.526 -0.196113C99.7512 -0.88508 98.7901 -1.175 97.7798 -1.175V1.825ZM98.5571 2.06686C98.6563 2.15141 98.7048 2.22609 98.7048 2.425H101.705C101.705 1.39057 101.303 0.465258 100.502 -0.216865L98.5571 2.06686ZM98.7048 2.425C98.7048 2.68587 98.6326 2.83153 98.4893 2.96952L100.57 5.13048C101.327 4.4018 101.705 3.46413 101.705 2.425H98.7048ZM98.4901 2.96875C98.3951 3.06011 98.2157 3.175 97.7798 3.175V6.175C98.8106 6.175 99.7978 5.87322 100.569 5.13125L98.4901 2.96875Z" fill="#FFFFEF" mask="url(#path-1-outside-1_546_18)"/>
</svg>
