<svg width="151" height="21" viewBox="0 0 151 21" fill="none" xmlns="http://www.w3.org/2000/svg">
<mask id="path-1-outside-1_546_9" maskUnits="userSpaceOnUse" x="-2" y="-2" width="155" height="24" fill="black">
<rect fill="white" x="-2" y="-2" width="155" height="24"/>
<path d="M0.443652 20V2.5H3.79365L11.2437 14.85H9.46865L16.7937 2.5H20.1187L20.1687 20H16.3687L16.3437 8.325H17.0437L11.1937 18.15H9.36865L3.39365 8.325H4.24365V20H0.443652ZM33.5456 20V17.375L33.2956 16.8V12.1C33.2956 11.2667 33.0373 10.6167 32.5206 10.15C32.0206 9.68333 31.2456 9.45 30.1956 9.45C29.4789 9.45 28.7706 9.56667 28.0706 9.8C27.3873 10.0167 26.8039 10.3167 26.3206 10.7L24.9206 7.975C25.6539 7.45833 26.5373 7.05833 27.5706 6.775C28.6039 6.49167 29.6539 6.35 30.7206 6.35C32.7706 6.35 34.3623 6.83333 35.4956 7.8C36.6289 8.76667 37.1956 10.275 37.1956 12.325V20H33.5456ZM29.4456 20.2C28.3956 20.2 27.4956 20.025 26.7456 19.675C25.9956 19.3083 25.4206 18.8167 25.0206 18.2C24.6206 17.5833 24.4206 16.8917 24.4206 16.125C24.4206 15.325 24.6123 14.625 24.9956 14.025C25.3956 13.425 26.0206 12.9583 26.8706 12.625C27.7206 12.275 28.8289 12.1 30.1956 12.1H33.7706V14.375H30.6206C29.7039 14.375 29.0706 14.525 28.7206 14.825C28.3873 15.125 28.2206 15.5 28.2206 15.95C28.2206 16.45 28.4123 16.85 28.7956 17.15C29.1956 17.4333 29.7373 17.575 30.4206 17.575C31.0706 17.575 31.6539 17.425 32.1706 17.125C32.6873 16.8083 33.0623 16.35 33.2956 15.75L33.8956 17.55C33.6123 18.4167 33.0956 19.075 32.3456 19.525C31.5956 19.975 30.6289 20.2 29.4456 20.2ZM50.1503 6.35C51.217 6.35 52.167 6.56667 53.0003 7C53.8503 7.41667 54.517 8.06667 55.0003 8.95C55.4836 9.81667 55.7253 10.9333 55.7253 12.3V20H51.8253V12.9C51.8253 11.8167 51.5836 11.0167 51.1003 10.5C50.6336 9.98333 49.967 9.725 49.1003 9.725C48.4836 9.725 47.9253 9.85833 47.4253 10.125C46.942 10.375 46.5586 10.7667 46.2753 11.3C46.0086 11.8333 45.8753 12.5167 45.8753 13.35V20H41.9753V1.45H45.8753V10.275L45.0003 9.15C45.4836 8.25 46.1753 7.55833 47.0753 7.075C47.9753 6.59167 49.0003 6.35 50.1503 6.35ZM68.7604 20V17.375L68.5104 16.8V12.1C68.5104 11.2667 68.2521 10.6167 67.7354 10.15C67.2354 9.68333 66.4604 9.45 65.4104 9.45C64.6938 9.45 63.9854 9.56667 63.2854 9.8C62.6021 10.0167 62.0188 10.3167 61.5354 10.7L60.1354 7.975C60.8688 7.45833 61.7521 7.05833 62.7854 6.775C63.8188 6.49167 64.8688 6.35 65.9354 6.35C67.9854 6.35 69.5771 6.83333 70.7104 7.8C71.8438 8.76667 72.4105 10.275 72.4105 12.325V20H68.7604ZM64.6604 20.2C63.6104 20.2 62.7104 20.025 61.9604 19.675C61.2104 19.3083 60.6354 18.8167 60.2354 18.2C59.8354 17.5833 59.6354 16.8917 59.6354 16.125C59.6354 15.325 59.8271 14.625 60.2104 14.025C60.6104 13.425 61.2354 12.9583 62.0854 12.625C62.9354 12.275 64.0438 12.1 65.4104 12.1H68.9854V14.375H65.8354C64.9188 14.375 64.2854 14.525 63.9354 14.825C63.6021 15.125 63.4354 15.5 63.4354 15.95C63.4354 16.45 63.6271 16.85 64.0104 17.15C64.4104 17.4333 64.9521 17.575 65.6354 17.575C66.2854 17.575 66.8688 17.425 67.3854 17.125C67.9021 16.8083 68.2771 16.35 68.5104 15.75L69.1104 17.55C68.8271 18.4167 68.3104 19.075 67.5604 19.525C66.8104 19.975 65.8438 20.2 64.6604 20.2ZM81.7151 20.2C80.5651 20.2 79.4568 20.0667 78.3901 19.8C77.3401 19.5167 76.5068 19.1667 75.8901 18.75L77.1901 15.95C77.8068 16.3333 78.5318 16.65 79.3651 16.9C80.2151 17.1333 81.0485 17.25 81.8651 17.25C82.7651 17.25 83.3985 17.1417 83.7651 16.925C84.1485 16.7083 84.3401 16.4083 84.3401 16.025C84.3401 15.7083 84.1901 15.475 83.8901 15.325C83.6068 15.1583 83.2235 15.0333 82.7401 14.95C82.2568 14.8667 81.7235 14.7833 81.1401 14.7C80.5735 14.6167 79.9985 14.5083 79.4151 14.375C78.8318 14.225 78.2985 14.0083 77.8151 13.725C77.3318 13.4417 76.9401 13.0583 76.6401 12.575C76.3568 12.0917 76.2151 11.4667 76.2151 10.7C76.2151 9.85 76.4568 9.1 76.9401 8.45C77.4401 7.8 78.1568 7.29167 79.0901 6.925C80.0235 6.54167 81.1401 6.35 82.4401 6.35C83.3568 6.35 84.2901 6.45 85.2401 6.65C86.1901 6.85 86.9818 7.14167 87.6151 7.525L86.3151 10.3C85.6651 9.91667 85.0068 9.65833 84.3401 9.525C83.6901 9.375 83.0568 9.3 82.4401 9.3C81.5735 9.3 80.9401 9.41667 80.5401 9.65C80.1401 9.88333 79.9401 10.1833 79.9401 10.55C79.9401 10.8833 80.0818 11.1333 80.3651 11.3C80.6651 11.4667 81.0568 11.6 81.5401 11.7C82.0235 11.8 82.5485 11.8917 83.1151 11.975C83.6985 12.0417 84.2818 12.15 84.8651 12.3C85.4485 12.45 85.9735 12.6667 86.4401 12.95C86.9235 13.2167 87.3151 13.5917 87.6151 14.075C87.9151 14.5417 88.0651 15.1583 88.0651 15.925C88.0651 16.7583 87.8151 17.5 87.3151 18.15C86.8151 18.7833 86.0901 19.2833 85.1401 19.65C84.2068 20.0167 83.0651 20.2 81.7151 20.2ZM91.7214 20V6.55H95.6214V20H91.7214ZM93.6714 4.675C92.9547 4.675 92.3714 4.46667 91.9214 4.05C91.4714 3.63333 91.2464 3.11667 91.2464 2.5C91.2464 1.88333 91.4714 1.36667 91.9214 0.949999C92.3714 0.533332 92.9547 0.324998 93.6714 0.324998C94.3881 0.324998 94.9714 0.524999 95.4214 0.925C95.8714 1.30833 96.0964 1.80833 96.0964 2.425C96.0964 3.075 95.8714 3.61667 95.4214 4.05C94.9881 4.46667 94.4047 4.675 93.6714 4.675ZM105.016 20.2C103.866 20.2 102.758 20.0667 101.691 19.8C100.641 19.5167 99.8076 19.1667 99.1909 18.75L100.491 15.95C101.108 16.3333 101.833 16.65 102.666 16.9C103.516 17.1333 104.349 17.25 105.166 17.25C106.066 17.25 106.699 17.1417 107.066 16.925C107.449 16.7083 107.641 16.4083 107.641 16.025C107.641 15.7083 107.491 15.475 107.191 15.325C106.908 15.1583 106.524 15.0333 106.041 14.95C105.558 14.8667 105.024 14.7833 104.441 14.7C103.874 14.6167 103.299 14.5083 102.716 14.375C102.133 14.225 101.599 14.0083 101.116 13.725C100.633 13.4417 100.241 13.0583 99.9409 12.575C99.6576 12.0917 99.5159 11.4667 99.5159 10.7C99.5159 9.85 99.7576 9.1 100.241 8.45C100.741 7.8 101.458 7.29167 102.391 6.925C103.324 6.54167 104.441 6.35 105.741 6.35C106.658 6.35 107.591 6.45 108.541 6.65C109.491 6.85 110.283 7.14167 110.916 7.525L109.616 10.3C108.966 9.91667 108.308 9.65833 107.641 9.525C106.991 9.375 106.358 9.3 105.741 9.3C104.874 9.3 104.241 9.41667 103.841 9.65C103.441 9.88333 103.241 10.1833 103.241 10.55C103.241 10.8833 103.383 11.1333 103.666 11.3C103.966 11.4667 104.358 11.6 104.841 11.7C105.324 11.8 105.849 11.8917 106.416 11.975C106.999 12.0417 107.583 12.15 108.166 12.3C108.749 12.45 109.274 12.6667 109.741 12.95C110.224 13.2167 110.616 13.5917 110.916 14.075C111.216 14.5417 111.366 15.1583 111.366 15.925C111.366 16.7583 111.116 17.5 110.616 18.15C110.116 18.7833 109.391 19.2833 108.441 19.65C107.508 20.0167 106.366 20.2 105.016 20.2ZM117.853 20L113.003 6.55H116.678L120.703 18.125H118.953L123.153 6.55H126.453L130.528 18.125H128.778L132.928 6.55H136.378L131.503 20H127.728L124.153 10.075H125.303L121.603 20H117.853ZM147.252 20V17.375L147.002 16.8V12.1C147.002 11.2667 146.743 10.6167 146.227 10.15C145.727 9.68333 144.952 9.45 143.902 9.45C143.185 9.45 142.477 9.56667 141.777 9.8C141.093 10.0167 140.51 10.3167 140.027 10.7L138.627 7.975C139.36 7.45833 140.243 7.05833 141.277 6.775C142.31 6.49167 143.36 6.35 144.427 6.35C146.477 6.35 148.068 6.83333 149.202 7.8C150.335 8.76667 150.902 10.275 150.902 12.325V20H147.252ZM143.152 20.2C142.102 20.2 141.202 20.025 140.452 19.675C139.702 19.3083 139.127 18.8167 138.727 18.2C138.327 17.5833 138.127 16.8917 138.127 16.125C138.127 15.325 138.318 14.625 138.702 14.025C139.102 13.425 139.727 12.9583 140.577 12.625C141.427 12.275 142.535 12.1 143.902 12.1H147.477V14.375H144.327C143.41 14.375 142.777 14.525 142.427 14.825C142.093 15.125 141.927 15.5 141.927 15.95C141.927 16.45 142.118 16.85 142.502 17.15C142.902 17.4333 143.443 17.575 144.127 17.575C144.777 17.575 145.36 17.425 145.877 17.125C146.393 16.8083 146.768 16.35 147.002 15.75L147.602 17.55C147.318 18.4167 146.802 19.075 146.052 19.525C145.302 19.975 144.335 20.2 143.152 20.2Z"/>
</mask>
<path d="M0.443652 20H-1.05635V21.5H0.443652V20ZM0.443652 2.5V0.999999H-1.05635V2.5H0.443652ZM3.79365 2.5L5.07805 1.7252L4.64058 0.999999H3.79365V2.5ZM11.2437 14.85V16.35H13.9003L12.5281 14.0752L11.2437 14.85ZM9.46865 14.85L8.17851 14.0848L6.83498 16.35H9.46865V14.85ZM16.7937 2.5V0.999999H15.9393L15.5035 1.73479L16.7937 2.5ZM20.1187 2.5L21.6186 2.49571L21.6144 0.999999H20.1187V2.5ZM20.1687 20V21.5H21.6729L21.6686 19.9957L20.1687 20ZM16.3687 20L14.8687 20.0032L14.8719 21.5H16.3687V20ZM16.3437 8.325V6.825H14.8404L14.8437 8.32821L16.3437 8.325ZM17.0437 8.325L18.3325 9.0924L19.6825 6.825H17.0437V8.325ZM11.1937 18.15V19.65H12.0463L12.4825 18.9174L11.1937 18.15ZM9.36865 18.15L8.08704 18.9294L8.52527 19.65H9.36865V18.15ZM3.39365 8.325V6.825H0.725838L2.11204 9.1044L3.39365 8.325ZM4.24365 8.325H5.74365V6.825H4.24365V8.325ZM4.24365 20V21.5H5.74365V20H4.24365ZM1.94365 20V2.5H-1.05635V20H1.94365ZM0.443652 4H3.79365V0.999999H0.443652V4ZM2.50925 3.2748L9.95925 15.6248L12.5281 14.0752L5.07805 1.7252L2.50925 3.2748ZM11.2437 13.35H9.46865V16.35H11.2437V13.35ZM10.7588 15.6152L18.0838 3.2652L15.5035 1.73479L8.17851 14.0848L10.7588 15.6152ZM16.7937 4H20.1187V0.999999H16.7937V4ZM18.6187 2.50428L18.6687 20.0043L21.6686 19.9957L21.6186 2.49571L18.6187 2.50428ZM20.1687 18.5H16.3687V21.5H20.1687V18.5ZM17.8686 19.9968L17.8436 8.32179L14.8437 8.32821L14.8687 20.0032L17.8686 19.9968ZM16.3437 9.825H17.0437V6.825H16.3437V9.825ZM15.7548 7.5576L9.90482 17.3826L12.4825 18.9174L18.3325 9.0924L15.7548 7.5576ZM11.1937 16.65H9.36865V19.65H11.1937V16.65ZM10.6503 17.3706L4.67527 7.5456L2.11204 9.1044L8.08704 18.9294L10.6503 17.3706ZM3.39365 9.825H4.24365V6.825H3.39365V9.825ZM2.74365 8.325V20H5.74365V8.325H2.74365ZM4.24365 18.5H0.443652V21.5H4.24365V18.5ZM33.5456 20H32.0456V21.5H33.5456V20ZM33.5456 17.375H35.0456V17.063L34.9212 16.7769L33.5456 17.375ZM33.2956 16.8H31.7956V17.112L31.92 17.3981L33.2956 16.8ZM32.5206 10.15L31.4971 11.2466L31.5061 11.2549L31.5152 11.2632L32.5206 10.15ZM28.0706 9.8L28.524 11.2298L28.5345 11.2265L28.5449 11.223L28.0706 9.8ZM26.3206 10.7L24.9864 11.3855L25.8213 13.0105L27.2527 11.8752L26.3206 10.7ZM24.9206 7.975L24.0567 6.74878L22.9902 7.50012L23.5864 8.66047L24.9206 7.975ZM27.5706 6.775L27.174 5.32839L27.174 5.32839L27.5706 6.775ZM35.4956 7.8L36.469 6.65875L36.469 6.65875L35.4956 7.8ZM37.1956 20V21.5H38.6956V20H37.1956ZM26.7456 19.675L26.0868 21.0226L26.099 21.0285L26.1113 21.0343L26.7456 19.675ZM25.0206 18.2L26.279 17.3837L26.279 17.3837L25.0206 18.2ZM24.9956 14.025L23.7475 13.1929L23.7394 13.2051L23.7316 13.2174L24.9956 14.025ZM26.8706 12.625L27.4182 14.0215L27.43 14.0168L27.4417 14.012L26.8706 12.625ZM33.7706 12.1H35.2706V10.6H33.7706V12.1ZM33.7706 14.375V15.875H35.2706V14.375H33.7706ZM28.7206 14.825L27.7444 13.6861L27.7306 13.6979L27.7172 13.7101L28.7206 14.825ZM28.7956 17.15L27.8711 18.3313L27.8994 18.3533L27.9286 18.374L28.7956 17.15ZM32.1706 17.125L32.9238 18.4222L32.9392 18.4132L32.9544 18.4039L32.1706 17.125ZM33.2956 15.75L34.7186 15.2757L33.4042 11.3323L31.8976 15.2063L33.2956 15.75ZM33.8956 17.55L35.3213 18.0161L35.4752 17.5454L35.3186 17.0757L33.8956 17.55ZM32.3456 19.525L31.5739 18.2388L31.5739 18.2388L32.3456 19.525ZM35.0456 20V17.375H32.0456V20H35.0456ZM34.9212 16.7769L34.6712 16.2019L31.92 17.3981L32.17 17.9731L34.9212 16.7769ZM34.7956 16.8V12.1H31.7956V16.8H34.7956ZM34.7956 12.1C34.7956 10.9334 34.4193 9.84368 33.526 9.03685L31.5152 11.2632C31.6552 11.3897 31.7956 11.6 31.7956 12.1H34.7956ZM33.5441 9.05342C32.6497 8.21869 31.4285 7.95 30.1956 7.95V10.95C31.0627 10.95 31.3915 11.148 31.4971 11.2466L33.5441 9.05342ZM30.1956 7.95C29.313 7.95 28.4446 8.09418 27.5963 8.37697L28.5449 11.223C29.0966 11.0391 29.6449 10.95 30.1956 10.95V7.95ZM27.6172 8.37015C26.7879 8.63312 26.0358 9.01143 25.3885 9.52475L27.2527 11.8752C27.5721 11.6219 27.9867 11.4002 28.524 11.2298L27.6172 8.37015ZM27.6548 10.0145L26.2548 7.28953L23.5864 8.66047L24.9864 11.3855L27.6548 10.0145ZM25.7845 9.20122C26.3515 8.8018 27.0696 8.46774 27.9673 8.2216L27.174 5.32839C26.005 5.64893 24.9564 6.11487 24.0567 6.74878L25.7845 9.20122ZM27.9673 8.22161C28.8719 7.97355 29.7886 7.85 30.7206 7.85V4.85C29.5193 4.85 28.3359 5.00979 27.174 5.32839L27.9673 8.22161ZM30.7206 7.85C32.5478 7.85 33.7473 8.28034 34.5222 8.94125L36.469 6.65875C34.9772 5.38633 32.9934 4.85 30.7206 4.85V7.85ZM34.5222 8.94125C35.2089 9.52702 35.6956 10.541 35.6956 12.325H38.6956C38.6956 10.009 38.0489 8.00632 36.469 6.65875L34.5222 8.94125ZM35.6956 12.325V20H38.6956V12.325H35.6956ZM37.1956 18.5H33.5456V21.5H37.1956V18.5ZM29.4456 18.7C28.5578 18.7 27.8854 18.5516 27.3799 18.3157L26.1113 21.0343C27.1058 21.4984 28.2334 21.7 29.4456 21.7V18.7ZM27.4044 18.3274C26.8649 18.0637 26.5118 17.7425 26.279 17.3837L23.7622 19.0163C24.3294 19.8908 25.1263 20.553 26.0868 21.0226L27.4044 18.3274ZM26.279 17.3837C26.0437 17.0209 25.9206 16.6151 25.9206 16.125H22.9206C22.9206 17.1682 23.1975 18.1458 23.7622 19.0163L26.279 17.3837ZM25.9206 16.125C25.9206 15.5747 26.0489 15.1624 26.2596 14.8326L23.7316 13.2174C23.1756 14.0876 22.9206 15.0753 22.9206 16.125H25.9206ZM26.2437 14.8571C26.4331 14.573 26.7777 14.2726 27.4182 14.0215L26.323 11.2285C25.2635 11.644 24.3582 12.277 23.7475 13.1929L26.2437 14.8571ZM27.4417 14.012C28.0448 13.7637 28.9383 13.6 30.1956 13.6V10.6C28.7196 10.6 27.3965 10.7863 26.2995 11.238L27.4417 14.012ZM30.1956 13.6H33.7706V10.6H30.1956V13.6ZM32.2706 12.1V14.375H35.2706V12.1H32.2706ZM33.7706 12.875H30.6206V15.875H33.7706V12.875ZM30.6206 12.875C29.6475 12.875 28.5305 13.0123 27.7444 13.6861L29.6968 15.9639C29.631 16.0202 29.6299 15.9883 29.8038 15.9471C29.9717 15.9074 30.2354 15.875 30.6206 15.875V12.875ZM27.7172 13.7101C27.0665 14.2956 26.7206 15.0764 26.7206 15.95H29.7206C29.7206 15.9304 29.7224 15.9225 29.7222 15.9236C29.7221 15.924 29.7216 15.926 29.7206 15.9293C29.7196 15.9325 29.7182 15.9363 29.7163 15.9405C29.7145 15.9446 29.7126 15.9483 29.7108 15.9514C29.709 15.9544 29.7076 15.9563 29.7072 15.9569C29.7061 15.9584 29.7103 15.9523 29.7241 15.9399L27.7172 13.7101ZM26.7206 15.95C26.7206 16.8967 27.1132 17.7381 27.8711 18.3313L29.7201 15.9687C29.7042 15.9563 29.7004 15.9509 29.7031 15.9541C29.7043 15.9556 29.7066 15.9585 29.7093 15.9627C29.712 15.967 29.7147 15.9718 29.7171 15.9768C29.7195 15.9819 29.7212 15.9863 29.7224 15.9897C29.7235 15.9931 29.7238 15.9946 29.7236 15.9938C29.7234 15.9924 29.7206 15.979 29.7206 15.95H26.7206ZM27.9286 18.374C28.6643 18.8952 29.5455 19.075 30.4206 19.075V16.075C29.929 16.075 29.7269 15.9715 29.6626 15.926L27.9286 18.374ZM30.4206 19.075C31.3112 19.075 32.1585 18.8666 32.9238 18.4222L31.4174 15.8278C31.1494 15.9834 30.83 16.075 30.4206 16.075V19.075ZM32.9544 18.4039C33.7688 17.9048 34.3493 17.1789 34.6936 16.2937L31.8976 15.2063C31.7752 15.5211 31.6058 15.7119 31.3868 15.8461L32.9544 18.4039ZM31.8726 16.2243L32.4726 18.0243L35.3186 17.0757L34.7186 15.2757L31.8726 16.2243ZM32.4699 17.0839C32.2935 17.6233 32.0002 17.983 31.5739 18.2388L33.1173 20.8112C34.191 20.167 34.931 19.21 35.3213 18.0161L32.4699 17.0839ZM31.5739 18.2388C31.1253 18.5079 30.4497 18.7 29.4456 18.7V21.7C30.8082 21.7 32.0659 21.4421 33.1173 20.8112L31.5739 18.2388ZM53.0003 7L52.3083 8.33082L52.3241 8.33904L52.3401 8.34688L53.0003 7ZM55.0003 8.95L53.6844 9.67004L53.6902 9.6806L55.0003 8.95ZM55.7253 20V21.5H57.2253V20H55.7253ZM51.8253 20H50.3253V21.5H51.8253V20ZM51.1003 10.5L49.9871 11.5054L49.9959 11.5152L50.0049 11.5247L51.1003 10.5ZM47.4253 10.125L48.1144 11.4573L48.1228 11.453L48.1312 11.4485L47.4253 10.125ZM46.2753 11.3L44.9506 10.5963L44.9419 10.6126L44.9337 10.6292L46.2753 11.3ZM45.8753 20V21.5H47.3753V20H45.8753ZM41.9753 20H40.4753V21.5H41.9753V20ZM41.9753 1.45V-0.0500011H40.4753V1.45H41.9753ZM45.8753 1.45H47.3753V-0.0500011H45.8753V1.45ZM45.8753 10.275L44.6913 11.1959L47.3753 14.6468V10.275H45.8753ZM45.0003 9.15L43.6788 8.44031L43.2169 9.30034L43.8163 10.0709L45.0003 9.15ZM47.0753 7.075L47.785 8.39649L47.785 8.39649L47.0753 7.075ZM50.1503 7.85C51.009 7.85 51.7161 8.02292 52.3083 8.33082L53.6923 5.66917C52.6178 5.11042 51.4249 4.85 50.1503 4.85V7.85ZM52.3401 8.34688C52.8939 8.61837 53.3397 9.04 53.6844 9.67002L56.3162 8.22998C55.6942 7.09333 54.8067 6.21497 53.6605 5.65312L52.3401 8.34688ZM53.6902 9.6806C54.0108 10.2554 54.2253 11.0971 54.2253 12.3H57.2253C57.2253 10.7695 56.9564 9.37792 56.3103 8.2194L53.6902 9.6806ZM54.2253 12.3V20H57.2253V12.3H54.2253ZM55.7253 18.5H51.8253V21.5H55.7253V18.5ZM53.3253 20V12.9H50.3253V20H53.3253ZM53.3253 12.9C53.3253 11.6323 53.0476 10.3859 52.1957 9.47526L50.0049 11.5247C50.1197 11.6474 50.3253 12.001 50.3253 12.9H53.3253ZM52.2134 9.49457C51.3953 8.58871 50.2796 8.225 49.1003 8.225V11.225C49.6544 11.225 49.872 11.378 49.9871 11.5054L52.2134 9.49457ZM49.1003 8.225C48.2597 8.225 47.4555 8.40891 46.7194 8.80147L48.1312 11.4485C48.3951 11.3078 48.7076 11.225 49.1003 11.225V8.225ZM46.7362 8.79267C45.9526 9.19798 45.3606 9.82452 44.9506 10.5963L47.6 12.0037C47.7566 11.7088 47.9313 11.552 48.1144 11.4573L46.7362 8.79267ZM44.9337 10.6292C44.5299 11.4367 44.3753 12.3708 44.3753 13.35H47.3753C47.3753 12.6625 47.4874 12.2299 47.6169 11.9708L44.9337 10.6292ZM44.3753 13.35V20H47.3753V13.35H44.3753ZM45.8753 18.5H41.9753V21.5H45.8753V18.5ZM43.4753 20V1.45H40.4753V20H43.4753ZM41.9753 2.95H45.8753V-0.0500011H41.9753V2.95ZM44.3753 1.45V10.275H47.3753V1.45H44.3753ZM47.0593 9.35409L46.1843 8.22909L43.8163 10.0709L44.6913 11.1959L47.0593 9.35409ZM46.3218 9.85969C46.6657 9.21929 47.1446 8.74041 47.785 8.39649L46.3656 5.75351C45.206 6.37626 44.3015 7.28071 43.6788 8.44031L46.3218 9.85969ZM47.785 8.39649C48.4406 8.04442 49.2164 7.85 50.1503 7.85V4.85C48.7842 4.85 47.51 5.13891 46.3656 5.75351L47.785 8.39649ZM68.7604 20H67.2604V21.5H68.7604V20ZM68.7604 17.375H70.2604V17.063L70.1361 16.7769L68.7604 17.375ZM68.5104 16.8H67.0104V17.112L67.1348 17.3981L68.5104 16.8ZM67.7354 10.15L66.712 11.2466L66.7209 11.2549L66.73 11.2632L67.7354 10.15ZM63.2854 9.8L63.7388 11.2298L63.7493 11.2265L63.7598 11.223L63.2854 9.8ZM61.5354 10.7L60.2012 11.3855L61.0361 13.0105L62.4675 11.8752L61.5354 10.7ZM60.1354 7.975L59.2715 6.74878L58.2051 7.50012L58.8012 8.66047L60.1354 7.975ZM62.7854 6.775L62.3888 5.32839L62.3888 5.32839L62.7854 6.775ZM70.7104 7.8L71.6839 6.65875L71.6839 6.65875L70.7104 7.8ZM72.4105 20V21.5H73.9105V20H72.4105ZM61.9604 19.675L61.3016 21.0226L61.3138 21.0285L61.3261 21.0343L61.9604 19.675ZM60.2354 18.2L61.4939 17.3837L61.4939 17.3837L60.2354 18.2ZM60.2104 14.025L58.9624 13.1929L58.9543 13.2051L58.9464 13.2174L60.2104 14.025ZM62.0854 12.625L62.6331 14.0215L62.6449 14.0168L62.6566 14.012L62.0854 12.625ZM68.9854 12.1H70.4854V10.6H68.9854V12.1ZM68.9854 14.375V15.875H70.4854V14.375H68.9854ZM63.9354 14.825L62.9593 13.6861L62.9455 13.6979L62.932 13.7101L63.9354 14.825ZM64.0104 17.15L63.086 18.3313L63.1142 18.3533L63.1434 18.374L64.0104 17.15ZM67.3854 17.125L68.1387 18.4222L68.1541 18.4132L68.1693 18.4039L67.3854 17.125ZM68.5104 15.75L69.9335 15.2757L68.619 11.3323L67.1124 15.2063L68.5104 15.75ZM69.1104 17.55L70.5362 18.0161L70.6901 17.5454L70.5335 17.0757L69.1104 17.55ZM67.5604 19.525L66.7887 18.2388L66.7887 18.2388L67.5604 19.525ZM70.2604 20V17.375H67.2604V20H70.2604ZM70.1361 16.7769L69.8861 16.2019L67.1348 17.3981L67.3848 17.9731L70.1361 16.7769ZM70.0104 16.8V12.1H67.0104V16.8H70.0104ZM70.0104 12.1C70.0104 10.9334 69.6342 9.84368 68.7409 9.03685L66.73 11.2632C66.8701 11.3897 67.0104 11.6 67.0104 12.1H70.0104ZM68.7589 9.05342C67.8646 8.21869 66.6433 7.95 65.4104 7.95V10.95C66.2776 10.95 66.6063 11.148 66.712 11.2466L68.7589 9.05342ZM65.4104 7.95C64.5278 7.95 63.6595 8.09418 62.8111 8.37697L63.7598 11.223C64.3114 11.0391 64.8598 10.95 65.4104 10.95V7.95ZM62.8321 8.37015C62.0027 8.63312 61.2506 9.01143 60.6034 9.52475L62.4675 11.8752C62.787 11.6219 63.2015 11.4002 63.7388 11.2298L62.8321 8.37015ZM62.8697 10.0145L61.4697 7.28953L58.8012 8.66047L60.2012 11.3855L62.8697 10.0145ZM60.9994 9.20122C61.5663 8.8018 62.2844 8.46774 63.1821 8.2216L62.3888 5.32839C61.2198 5.64893 60.1713 6.11487 59.2715 6.74878L60.9994 9.20122ZM63.1821 8.22161C64.0868 7.97355 65.0034 7.85 65.9354 7.85V4.85C64.7342 4.85 63.5508 5.00979 62.3888 5.32839L63.1821 8.22161ZM65.9354 7.85C67.7626 7.85 68.9622 8.28034 69.737 8.94125L71.6839 6.65875C70.1921 5.38633 68.2083 4.85 65.9354 4.85V7.85ZM69.737 8.94125C70.4238 9.52702 70.9105 10.541 70.9105 12.325H73.9105C73.9105 10.009 73.2638 8.00632 71.6839 6.65875L69.737 8.94125ZM70.9105 12.325V20H73.9105V12.325H70.9105ZM72.4105 18.5H68.7604V21.5H72.4105V18.5ZM64.6604 18.7C63.7726 18.7 63.1003 18.5516 62.5948 18.3157L61.3261 21.0343C62.3206 21.4984 63.4483 21.7 64.6604 21.7V18.7ZM62.6193 18.3274C62.0797 18.0637 61.7266 17.7425 61.4939 17.3837L58.977 19.0163C59.5443 19.8908 60.3412 20.553 61.3016 21.0226L62.6193 18.3274ZM61.4939 17.3837C61.2586 17.0209 61.1354 16.6151 61.1354 16.125H58.1354C58.1354 17.1682 58.4123 18.1458 58.977 19.0163L61.4939 17.3837ZM61.1354 16.125C61.1354 15.5747 61.2638 15.1624 61.4745 14.8326L58.9464 13.2174C58.3905 14.0876 58.1354 15.0753 58.1354 16.125H61.1354ZM61.4585 14.8571C61.6479 14.573 61.9926 14.2726 62.6331 14.0215L61.5378 11.2285C60.4783 11.644 59.573 12.277 58.9624 13.1929L61.4585 14.8571ZM62.6566 14.012C63.2596 13.7637 64.1531 13.6 65.4104 13.6V10.6C63.9345 10.6 62.6113 10.7863 61.5143 11.238L62.6566 14.012ZM65.4104 13.6H68.9854V10.6H65.4104V13.6ZM67.4854 12.1V14.375H70.4854V12.1H67.4854ZM68.9854 12.875H65.8354V15.875H68.9854V12.875ZM65.8354 12.875C64.8624 12.875 63.7454 13.0123 62.9593 13.6861L64.9116 15.9639C64.8459 16.0202 64.8447 15.9883 65.0186 15.9471C65.1865 15.9074 65.4503 15.875 65.8354 15.875V12.875ZM62.932 13.7101C62.2814 14.2956 61.9354 15.0764 61.9354 15.95H64.9354C64.9354 15.9304 64.9372 15.9225 64.937 15.9236C64.9369 15.924 64.9365 15.926 64.9354 15.9293C64.9344 15.9325 64.933 15.9363 64.9312 15.9405C64.9293 15.9446 64.9274 15.9483 64.9256 15.9514C64.9238 15.9544 64.9225 15.9563 64.922 15.9569C64.921 15.9584 64.9251 15.9523 64.9389 15.9399L62.932 13.7101ZM61.9354 15.95C61.9354 16.8967 62.328 17.7381 63.086 18.3313L64.9349 15.9687C64.919 15.9563 64.9153 15.9509 64.918 15.9541C64.9192 15.9556 64.9214 15.9585 64.9241 15.9627C64.9268 15.967 64.9295 15.9718 64.9319 15.9768C64.9343 15.9819 64.9361 15.9863 64.9372 15.9897C64.9384 15.9931 64.9387 15.9946 64.9385 15.9938C64.9382 15.9924 64.9354 15.979 64.9354 15.95H61.9354ZM63.1434 18.374C63.8791 18.8952 64.7603 19.075 65.6354 19.075V16.075C65.1439 16.075 64.9418 15.9715 64.8775 15.926L63.1434 18.374ZM65.6354 19.075C66.526 19.075 67.3733 18.8666 68.1387 18.4222L66.6322 15.8278C66.3643 15.9834 66.0449 16.075 65.6354 16.075V19.075ZM68.1693 18.4039C68.9836 17.9048 69.5642 17.1789 69.9085 16.2937L67.1124 15.2063C66.9901 15.5211 66.8206 15.7119 66.6016 15.8461L68.1693 18.4039ZM67.0874 16.2243L67.6874 18.0243L70.5335 17.0757L69.9335 15.2757L67.0874 16.2243ZM67.6847 17.0839C67.5084 17.6233 67.215 17.983 66.7887 18.2388L68.3322 20.8112C69.4059 20.167 70.1459 19.21 70.5362 18.0161L67.6847 17.0839ZM66.7887 18.2388C66.3402 18.5079 65.6645 18.7 64.6604 18.7V21.7C66.023 21.7 67.2807 21.4421 68.3322 20.8112L66.7887 18.2388ZM78.3901 19.8L77.9994 21.2482L78.0128 21.2518L78.0263 21.2552L78.3901 19.8ZM75.8901 18.75L74.5296 18.1183L73.9915 19.2774L75.0504 19.9929L75.8901 18.75ZM77.1901 15.95L77.982 14.6761L76.5431 13.7816L75.8296 15.3183L77.1901 15.95ZM79.3651 16.9L78.9341 18.3367L78.951 18.3418L78.9681 18.3465L79.3651 16.9ZM83.7651 16.925L83.0271 15.6192L83.0145 15.6263L83.002 15.6336L83.7651 16.925ZM83.8901 15.325L83.1296 16.6179L83.1736 16.6438L83.2193 16.6666L83.8901 15.325ZM82.7401 14.95L82.4853 16.4282L82.4853 16.4282L82.7401 14.95ZM81.1401 14.7L80.9219 16.1841L80.928 16.1849L81.1401 14.7ZM79.4151 14.375L79.0416 15.8277L79.0612 15.8328L79.0809 15.8373L79.4151 14.375ZM77.8151 13.725L78.5737 12.431L78.5737 12.431L77.8151 13.725ZM76.6401 12.575L75.3461 13.3336L75.3557 13.3499L75.3657 13.366L76.6401 12.575ZM76.9401 8.45L75.7512 7.53543L75.7437 7.54513L75.7364 7.55495L76.9401 8.45ZM79.0901 6.925L79.6386 8.32113L79.6493 8.31691L79.66 8.31253L79.0901 6.925ZM85.2401 6.65L85.5492 5.18217L85.5492 5.18217L85.2401 6.65ZM87.6151 7.525L88.9735 8.16134L89.5456 6.94007L88.3918 6.24175L87.6151 7.525ZM86.3151 10.3L85.5532 11.592L86.9738 12.4299L87.6735 10.9363L86.3151 10.3ZM84.3401 9.525L84.0028 10.9866L84.0243 10.9915L84.046 10.9959L84.3401 9.525ZM80.5401 9.65L79.7843 8.35433L79.7843 8.35433L80.5401 9.65ZM80.3651 11.3L79.6046 12.5929L79.6205 12.6023L79.6367 12.6112L80.3651 11.3ZM83.1151 11.975L82.8969 13.459L82.9208 13.4626L82.9448 13.4653L83.1151 11.975ZM84.8651 12.3L85.2387 10.8473L85.2387 10.8473L84.8651 12.3ZM86.4401 12.95L85.6617 14.2322L85.6883 14.2483L85.7155 14.2634L86.4401 12.95ZM87.6151 14.075L86.3407 14.866L86.3469 14.8761L86.3534 14.8861L87.6151 14.075ZM87.3151 18.15L88.4925 19.0795L88.4983 19.0721L88.5041 19.0646L87.3151 18.15ZM85.1401 19.65L84.6 18.2506L84.5917 18.2539L85.1401 19.65ZM81.7151 18.7C80.6821 18.7 79.6963 18.5804 78.7539 18.3448L78.0263 21.2552C79.2173 21.553 80.4481 21.7 81.7151 21.7V18.7ZM78.7809 18.3518C77.824 18.0936 77.1617 17.7989 76.7299 17.5071L75.0504 19.9929C75.8519 20.5345 76.8563 20.9398 77.9994 21.2482L78.7809 18.3518ZM77.2507 19.3817L78.5507 16.5817L75.8296 15.3183L74.5296 18.1183L77.2507 19.3817ZM76.3982 17.2239C77.1471 17.6894 77.9981 18.0559 78.9341 18.3367L79.7962 15.4633C79.0655 15.2441 78.4665 14.9772 77.982 14.6761L76.3982 17.2239ZM78.9681 18.3465C79.9372 18.6125 80.9041 18.75 81.8651 18.75V15.75C81.1928 15.75 80.493 15.6541 79.7622 15.4535L78.9681 18.3465ZM81.8651 18.75C82.7959 18.75 83.7878 18.6539 84.5282 18.2164L83.002 15.6336C83.0347 15.6143 82.9813 15.6528 82.7622 15.6902C82.5548 15.7257 82.2612 15.75 81.8651 15.75V18.75ZM84.5032 18.2308C85.2732 17.7956 85.8401 17.0393 85.8401 16.025H82.8401C82.8401 15.9534 82.8622 15.8397 82.9323 15.7299C82.9962 15.63 83.0551 15.6033 83.0271 15.6192L84.5032 18.2308ZM85.8401 16.025C85.8401 15.6208 85.7411 15.1929 85.4894 14.8014C85.2409 14.4148 84.9015 14.1537 84.561 13.9834L83.2193 16.6666C83.1787 16.6463 83.0644 16.5769 82.9659 16.4236C82.8642 16.2654 82.8401 16.1125 82.8401 16.025H85.8401ZM84.6507 14.0321C84.1545 13.7402 83.5774 13.5722 82.995 13.4718L82.4853 16.4282C82.8695 16.4944 83.0591 16.5765 83.1296 16.6179L84.6507 14.0321ZM82.995 13.4718C82.495 13.3856 81.9471 13.3001 81.3523 13.2151L80.928 16.1849C81.4998 16.2666 82.0186 16.3477 82.4853 16.4282L82.995 13.4718ZM81.3584 13.216C80.8323 13.1386 80.296 13.0377 79.7494 12.9127L79.0809 15.8373C79.7009 15.979 80.3146 16.0947 80.9219 16.184L81.3584 13.216ZM79.7887 12.9223C79.3304 12.8044 78.928 12.6387 78.5737 12.431L77.0566 15.019C77.6689 15.378 78.3332 15.6456 79.0416 15.8277L79.7887 12.9223ZM78.5737 12.431C78.304 12.2728 78.0881 12.0635 77.9146 11.784L75.3657 13.366C75.7922 14.0532 76.3596 14.6105 77.0566 15.019L78.5737 12.431ZM77.9342 11.8164C77.8265 11.6327 77.7151 11.2942 77.7151 10.7H74.7151C74.7151 11.6391 74.8871 12.5506 75.3461 13.3336L77.9342 11.8164ZM77.7151 10.7C77.7151 10.1554 77.8628 9.72298 78.1438 9.34505L75.7364 7.55495C75.0508 8.47702 74.7151 9.54456 74.7151 10.7H77.7151ZM78.1291 9.36457C78.4298 8.97359 78.9022 8.61045 79.6386 8.32113L78.5417 5.52887C77.4115 5.97288 76.4504 6.62641 75.7512 7.53543L78.1291 9.36457ZM79.66 8.31253C80.3686 8.02151 81.2817 7.85 82.4401 7.85V4.85C80.9985 4.85 79.6783 5.06183 78.5203 5.53747L79.66 8.31253ZM82.4401 7.85C83.247 7.85 84.0768 7.93796 84.9311 8.11782L85.5492 5.18217C84.5035 4.96204 83.4666 4.85 82.4401 4.85V7.85ZM84.9311 8.11782C85.7645 8.29326 86.3866 8.53475 86.8384 8.80825L88.3918 6.24175C87.577 5.74858 86.6158 5.40673 85.5492 5.18217L84.9311 8.11782ZM86.2568 6.88866L84.9568 9.66366L87.6735 10.9363L88.9735 8.16134L86.2568 6.88866ZM87.0771 9.00795C86.2981 8.54854 85.4829 8.22385 84.6343 8.05413L84.046 10.9959C84.5307 11.0928 85.0322 11.2848 85.5532 11.592L87.0771 9.00795ZM84.6774 8.06341C83.9258 7.88995 83.1792 7.8 82.4401 7.8V10.8C82.9345 10.8 83.4545 10.86 84.0028 10.9866L84.6774 8.06341ZM82.4401 7.8C81.503 7.8 80.5379 7.91474 79.7843 8.35433L81.2959 10.9457C81.2951 10.9462 81.3151 10.9345 81.3651 10.9176C81.4149 10.9007 81.4873 10.881 81.5869 10.8627C81.7893 10.8254 82.0689 10.8 82.4401 10.8V7.8ZM79.7843 8.35433C79.0639 8.7746 78.4401 9.50516 78.4401 10.55H81.4401C81.4401 10.5965 81.4335 10.6547 81.4144 10.7185C81.3952 10.7825 81.3676 10.8379 81.3382 10.882C81.2808 10.9682 81.239 10.9789 81.2959 10.9457L79.7843 8.35433ZM78.4401 10.55C78.4401 11.4057 78.8552 12.1521 79.6046 12.5929L81.1257 10.0071C81.1777 10.0377 81.2747 10.1126 81.3514 10.248C81.4276 10.3823 81.4401 10.4993 81.4401 10.55H78.4401ZM79.6367 12.6112C80.1136 12.8762 80.6635 13.0504 81.2362 13.1689L81.844 10.2311C81.4502 10.1496 81.2167 10.0572 81.0936 9.98876L79.6367 12.6112ZM81.2362 13.1689C81.752 13.2756 82.306 13.3721 82.8969 13.459L83.3334 10.491C82.791 10.4112 82.2949 10.3244 81.844 10.2311L81.2362 13.1689ZM82.9448 13.4653C83.4579 13.5239 83.9733 13.6195 84.4916 13.7527L85.2387 10.8473C84.5903 10.6805 83.9391 10.5594 83.2855 10.4847L82.9448 13.4653ZM84.4916 13.7527C84.9469 13.8698 85.3331 14.0327 85.6617 14.2322L87.2186 11.6678C86.6138 11.3006 85.9501 11.0302 85.2387 10.8473L84.4916 13.7527ZM85.7155 14.2634C85.9668 14.402 86.1719 14.5941 86.3407 14.866L88.8896 13.284C88.4584 12.5892 87.8801 12.0313 87.1648 11.6366L85.7155 14.2634ZM86.3534 14.8861C86.4491 15.035 86.5651 15.34 86.5651 15.925H89.5651C89.5651 14.9766 89.3812 14.0484 88.8769 13.2639L86.3534 14.8861ZM86.5651 15.925C86.5651 16.4333 86.421 16.8522 86.1262 17.2354L88.5041 19.0646C89.2093 18.1478 89.5651 17.0834 89.5651 15.925H86.5651ZM86.1378 17.2205C85.8426 17.5944 85.3642 17.9557 84.6 18.2506L85.6803 21.0494C86.8161 20.611 87.7876 19.9722 88.4925 19.0795L86.1378 17.2205ZM84.5917 18.2539C83.8821 18.5326 82.9385 18.7 81.7151 18.7V21.7C83.1918 21.7 84.5315 21.5007 85.6886 21.0461L84.5917 18.2539ZM91.7214 20H90.2214V21.5H91.7214V20ZM91.7214 6.55V5.05H90.2214V6.55H91.7214ZM95.6214 6.55H97.1214V5.05H95.6214V6.55ZM95.6214 20V21.5H97.1214V20H95.6214ZM91.9214 4.05L90.9023 5.15064L90.9023 5.15064L91.9214 4.05ZM91.9214 0.949999L92.9405 2.05064L92.9405 2.05064L91.9214 0.949999ZM95.4214 0.925L94.4248 2.04611L94.4367 2.05661L94.4487 2.06686L95.4214 0.925ZM95.4214 4.05L96.461 5.13125L96.4619 5.13048L95.4214 4.05ZM93.2214 20V6.55H90.2214V20H93.2214ZM91.7214 8.05H95.6214V5.05H91.7214V8.05ZM94.1214 6.55V20H97.1214V6.55H94.1214ZM95.6214 18.5H91.7214V21.5H95.6214V18.5ZM93.6714 3.175C93.2647 3.175 93.0671 3.06658 92.9405 2.94936L90.9023 5.15064C91.6757 5.86675 92.6448 6.175 93.6714 6.175V3.175ZM92.9405 2.94936C92.799 2.81836 92.7464 2.70145 92.7464 2.5H89.7464C89.7464 3.53188 90.1438 4.4483 90.9023 5.15064L92.9405 2.94936ZM92.7464 2.5C92.7464 2.29855 92.799 2.18164 92.9405 2.05064L90.9023 -0.150642C90.1438 0.551694 89.7464 1.46812 89.7464 2.5H92.7464ZM92.9405 2.05064C93.0671 1.93342 93.2647 1.825 93.6714 1.825V-1.175C92.6448 -1.175 91.6757 -0.866755 90.9023 -0.150641L92.9405 2.05064ZM93.6714 1.825C94.0944 1.825 94.2999 1.93508 94.4248 2.04611L96.4179 -0.196113C95.6428 -0.88508 94.6817 -1.175 93.6714 -1.175V1.825ZM94.4487 2.06686C94.5479 2.15141 94.5964 2.22609 94.5964 2.425H97.5964C97.5964 1.39057 97.1948 0.465258 96.3941 -0.216865L94.4487 2.06686ZM94.5964 2.425C94.5964 2.68587 94.5242 2.83153 94.3809 2.96952L96.4619 5.13048C97.2186 4.4018 97.5964 3.46413 97.5964 2.425H94.5964ZM94.3817 2.96875C94.2867 3.06011 94.1073 3.175 93.6714 3.175V6.175C94.7022 6.175 95.6894 5.87322 96.461 5.13125L94.3817 2.96875ZM101.691 19.8L101.3 21.2482L101.314 21.2518L101.327 21.2552L101.691 19.8ZM99.1909 18.75L97.8304 18.1183L97.2923 19.2774L98.3511 19.9929L99.1909 18.75ZM100.491 15.95L101.283 14.6761L99.8439 13.7816L99.1304 15.3183L100.491 15.95ZM102.666 16.9L102.235 18.3367L102.252 18.3418L102.269 18.3465L102.666 16.9ZM107.066 16.925L106.328 15.6192L106.315 15.6263L106.303 15.6336L107.066 16.925ZM107.191 15.325L106.43 16.6179L106.474 16.6438L106.52 16.6666L107.191 15.325ZM106.041 14.95L105.786 16.4282L105.786 16.4282L106.041 14.95ZM104.441 14.7L104.223 16.1841L104.229 16.1849L104.441 14.7ZM102.716 14.375L102.342 15.8277L102.362 15.8328L102.382 15.8373L102.716 14.375ZM101.116 13.725L101.874 12.431L101.874 12.431L101.116 13.725ZM99.9409 12.575L98.6469 13.3336L98.6565 13.3499L98.6665 13.366L99.9409 12.575ZM100.241 8.45L99.052 7.53543L99.0445 7.54513L99.0372 7.55495L100.241 8.45ZM102.391 6.925L102.939 8.32113L102.95 8.31691L102.961 8.31253L102.391 6.925ZM108.541 6.65L108.85 5.18217L108.85 5.18217L108.541 6.65ZM110.916 7.525L112.274 8.16134L112.846 6.94007L111.693 6.24175L110.916 7.525ZM109.616 10.3L108.854 11.592L110.275 12.4299L110.974 10.9363L109.616 10.3ZM107.641 9.525L107.304 10.9866L107.325 10.9915L107.347 10.9959L107.641 9.525ZM103.841 9.65L103.085 8.35433L103.085 8.35433L103.841 9.65ZM103.666 11.3L102.905 12.5929L102.921 12.6023L102.937 12.6112L103.666 11.3ZM106.416 11.975L106.198 13.459L106.222 13.4626L106.246 13.4653L106.416 11.975ZM108.166 12.3L108.539 10.8473L108.539 10.8473L108.166 12.3ZM109.741 12.95L108.962 14.2322L108.989 14.2483L109.016 14.2634L109.741 12.95ZM110.916 14.075L109.641 14.866L109.648 14.8761L109.654 14.8861L110.916 14.075ZM110.616 18.15L111.793 19.0795L111.799 19.0721L111.805 19.0646L110.616 18.15ZM108.441 19.65L107.901 18.2506L107.892 18.2539L108.441 19.65ZM105.016 18.7C103.983 18.7 102.997 18.5804 102.055 18.3448L101.327 21.2552C102.518 21.553 103.749 21.7 105.016 21.7V18.7ZM102.082 18.3518C101.125 18.0936 100.462 17.7989 100.031 17.5071L98.3511 19.9929C99.1527 20.5345 100.157 20.9398 101.3 21.2482L102.082 18.3518ZM100.551 19.3817L101.851 16.5817L99.1304 15.3183L97.8304 18.1183L100.551 19.3817ZM99.699 17.2239C100.448 17.6894 101.299 18.0559 102.235 18.3367L103.097 15.4633C102.366 15.2441 101.767 14.9772 101.283 14.6761L99.699 17.2239ZM102.269 18.3465C103.238 18.6125 104.205 18.75 105.166 18.75V15.75C104.494 15.75 103.794 15.6541 103.063 15.4535L102.269 18.3465ZM105.166 18.75C106.097 18.75 107.089 18.6539 107.829 18.2164L106.303 15.6336C106.335 15.6143 106.282 15.6528 106.063 15.6902C105.856 15.7257 105.562 15.75 105.166 15.75V18.75ZM107.804 18.2308C108.574 17.7956 109.141 17.0393 109.141 16.025H106.141C106.141 15.9534 106.163 15.8397 106.233 15.7299C106.297 15.63 106.356 15.6033 106.328 15.6192L107.804 18.2308ZM109.141 16.025C109.141 15.6208 109.042 15.1929 108.79 14.8014C108.542 14.4148 108.202 14.1537 107.862 13.9834L106.52 16.6666C106.48 16.6463 106.365 16.5769 106.267 16.4236C106.165 16.2654 106.141 16.1125 106.141 16.025H109.141ZM107.951 14.0321C107.455 13.7402 106.878 13.5722 106.296 13.4718L105.786 16.4282C106.17 16.4944 106.36 16.5765 106.43 16.6179L107.951 14.0321ZM106.296 13.4718C105.796 13.3856 105.248 13.3001 104.653 13.2151L104.229 16.1849C104.801 16.2666 105.319 16.3477 105.786 16.4282L106.296 13.4718ZM104.659 13.216C104.133 13.1386 103.597 13.0377 103.05 12.9127L102.382 15.8373C103.002 15.979 103.615 16.0947 104.223 16.184L104.659 13.216ZM103.089 12.9223C102.631 12.8044 102.229 12.6387 101.874 12.431L100.357 15.019C100.97 15.378 101.634 15.6456 102.342 15.8277L103.089 12.9223ZM101.874 12.431C101.605 12.2728 101.389 12.0635 101.215 11.784L98.6665 13.366C99.0929 14.0532 99.6604 14.6105 100.357 15.019L101.874 12.431ZM101.235 11.8164C101.127 11.6327 101.016 11.2942 101.016 10.7H98.0159C98.0159 11.6391 98.1879 12.5506 98.6469 13.3336L101.235 11.8164ZM101.016 10.7C101.016 10.1554 101.164 9.72298 101.445 9.34505L99.0372 7.55495C98.3516 8.47702 98.0159 9.54456 98.0159 10.7H101.016ZM101.43 9.36457C101.731 8.97359 102.203 8.61045 102.939 8.32113L101.842 5.52887C100.712 5.97288 99.7512 6.62641 99.052 7.53543L101.43 9.36457ZM102.961 8.31253C103.669 8.02151 104.583 7.85 105.741 7.85V4.85C104.299 4.85 102.979 5.06183 101.821 5.53747L102.961 8.31253ZM105.741 7.85C106.548 7.85 107.378 7.93796 108.232 8.11782L108.85 5.18217C107.804 4.96204 106.767 4.85 105.741 4.85V7.85ZM108.232 8.11782C109.065 8.29326 109.687 8.53475 110.139 8.80825L111.693 6.24175C110.878 5.74858 109.917 5.40673 108.85 5.18217L108.232 8.11782ZM109.558 6.88866L108.258 9.66366L110.974 10.9363L112.274 8.16134L109.558 6.88866ZM110.378 9.00795C109.599 8.54854 108.784 8.22385 107.935 8.05413L107.347 10.9959C107.831 11.0928 108.333 11.2848 108.854 11.592L110.378 9.00795ZM107.978 8.06341C107.227 7.88995 106.48 7.8 105.741 7.8V10.8C106.235 10.8 106.755 10.86 107.304 10.9866L107.978 8.06341ZM105.741 7.8C104.804 7.8 103.839 7.91474 103.085 8.35433L104.597 10.9457C104.596 10.9462 104.616 10.9345 104.666 10.9176C104.716 10.9007 104.788 10.881 104.888 10.8627C105.09 10.8254 105.37 10.8 105.741 10.8V7.8ZM103.085 8.35433C102.365 8.7746 101.741 9.50516 101.741 10.55H104.741C104.741 10.5965 104.734 10.6547 104.715 10.7185C104.696 10.7825 104.668 10.8379 104.639 10.882C104.582 10.9682 104.54 10.9789 104.597 10.9457L103.085 8.35433ZM101.741 10.55C101.741 11.4057 102.156 12.1521 102.905 12.5929L104.426 10.0071C104.479 10.0377 104.575 10.1126 104.652 10.248C104.728 10.3823 104.741 10.4993 104.741 10.55H101.741ZM102.937 12.6112C103.414 12.8762 103.964 13.0504 104.537 13.1689L105.145 10.2311C104.751 10.1496 104.517 10.0572 104.394 9.98876L102.937 12.6112ZM104.537 13.1689C105.053 13.2756 105.607 13.3721 106.198 13.459L106.634 10.491C106.092 10.4112 105.596 10.3244 105.145 10.2311L104.537 13.1689ZM106.246 13.4653C106.759 13.5239 107.274 13.6195 107.792 13.7527L108.539 10.8473C107.891 10.6805 107.24 10.5594 106.586 10.4847L106.246 13.4653ZM107.792 13.7527C108.248 13.8698 108.634 14.0327 108.962 14.2322L110.519 11.6678C109.915 11.3006 109.251 11.0302 108.539 10.8473L107.792 13.7527ZM109.016 14.2634C109.268 14.402 109.473 14.5941 109.641 14.866L112.19 13.284C111.759 12.5892 111.181 12.0313 110.466 11.6366L109.016 14.2634ZM109.654 14.8861C109.75 15.035 109.866 15.34 109.866 15.925H112.866C112.866 14.9766 112.682 14.0484 112.178 13.2639L109.654 14.8861ZM109.866 15.925C109.866 16.4333 109.722 16.8522 109.427 17.2354L111.805 19.0646C112.51 18.1478 112.866 17.0834 112.866 15.925H109.866ZM109.439 17.2205C109.143 17.5944 108.665 17.9557 107.901 18.2506L108.981 21.0494C110.117 20.611 111.088 19.9722 111.793 19.0795L109.439 17.2205ZM107.892 18.2539C107.183 18.5326 106.239 18.7 105.016 18.7V21.7C106.493 21.7 107.832 21.5007 108.989 21.0461L107.892 18.2539ZM117.853 20L116.442 20.5088L116.799 21.5H117.853V20ZM113.003 6.55V5.05H110.868L111.592 7.05882L113.003 6.55ZM116.678 6.55L118.095 6.05734L117.745 5.05H116.678V6.55ZM120.703 18.125V19.625H122.813L122.12 17.6323L120.703 18.125ZM118.953 18.125L117.543 17.6134L116.813 19.625H118.953V18.125ZM123.153 6.55V5.05H122.102L121.743 6.03836L123.153 6.55ZM126.453 6.55L127.868 6.05189L127.515 5.05H126.453V6.55ZM130.528 18.125V19.625H132.646L131.943 17.6269L130.528 18.125ZM128.778 18.125L127.366 17.6188L126.647 19.625H128.778V18.125ZM132.928 6.55V5.05H131.872L131.516 6.04376L132.928 6.55ZM136.378 6.55L137.788 7.06114L138.517 5.05H136.378V6.55ZM131.503 20V21.5H132.555L132.913 20.5111L131.503 20ZM127.728 20L126.317 20.5083L126.674 21.5H127.728V20ZM124.153 10.075V8.575H122.018L122.742 10.5833L124.153 10.075ZM125.303 10.075L126.709 10.599L127.463 8.575H125.303V10.075ZM121.603 20V21.5H122.645L123.009 20.524L121.603 20ZM119.264 19.4912L114.414 6.04118L111.592 7.05882L116.442 20.5088L119.264 19.4912ZM113.003 8.05H116.678V5.05H113.003V8.05ZM115.261 7.04266L119.286 18.6177L122.12 17.6323L118.095 6.05734L115.261 7.04266ZM120.703 16.625H118.953V19.625H120.703V16.625ZM120.363 18.6366L124.563 7.06164L121.743 6.03836L117.543 17.6134L120.363 18.6366ZM123.153 8.05H126.453V5.05H123.153V8.05ZM125.038 7.04811L129.113 18.6231L131.943 17.6269L127.868 6.05189L125.038 7.04811ZM130.528 16.625H128.778V19.625H130.528V16.625ZM130.19 18.6312L134.34 7.05624L131.516 6.04376L127.366 17.6188L130.19 18.6312ZM132.928 8.05H136.378V5.05H132.928V8.05ZM134.968 6.03886L130.093 19.4889L132.913 20.5111L137.788 7.06114L134.968 6.03886ZM131.503 18.5H127.728V21.5H131.503V18.5ZM129.139 19.4917L125.564 9.56667L122.742 10.5833L126.317 20.5083L129.139 19.4917ZM124.153 11.575H125.303V8.575H124.153V11.575ZM123.898 9.55103L120.198 19.476L123.009 20.524L126.709 10.599L123.898 9.55103ZM121.603 18.5H117.853V21.5H121.603V18.5ZM147.252 20H145.752V21.5H147.252V20ZM147.252 17.375H148.752V17.063L148.627 16.7769L147.252 17.375ZM147.002 16.8H145.502V17.112L145.626 17.3981L147.002 16.8ZM146.227 10.15L145.203 11.2466L145.212 11.2549L145.221 11.2632L146.227 10.15ZM141.777 9.8L142.23 11.2298L142.241 11.2265L142.251 11.223L141.777 9.8ZM140.027 10.7L138.692 11.3855L139.527 13.0105L140.959 11.8752L140.027 10.7ZM138.627 7.975L137.763 6.74878L136.696 7.50012L137.292 8.66047L138.627 7.975ZM141.277 6.775L140.88 5.32839L140.88 5.32839L141.277 6.775ZM149.202 7.8L150.175 6.65875L150.175 6.65875L149.202 7.8ZM150.902 20V21.5H152.402V20H150.902ZM140.452 19.675L139.793 21.0226L139.805 21.0285L139.817 21.0343L140.452 19.675ZM138.727 18.2L139.985 17.3837L139.985 17.3837L138.727 18.2ZM138.702 14.025L137.454 13.1929L137.445 13.2051L137.438 13.2174L138.702 14.025ZM140.577 12.625L141.124 14.0215L141.136 14.0168L141.148 14.012L140.577 12.625ZM147.477 12.1H148.977V10.6H147.477V12.1ZM147.477 14.375V15.875H148.977V14.375H147.477ZM142.427 14.825L141.45 13.6861L141.437 13.6979L141.423 13.7101L142.427 14.825ZM142.502 17.15L141.577 18.3313L141.605 18.3533L141.635 18.374L142.502 17.15ZM145.877 17.125L146.63 18.4222L146.645 18.4132L146.661 18.4039L145.877 17.125ZM147.002 15.75L148.425 15.2757L147.11 11.3323L145.604 15.2063L147.002 15.75ZM147.602 17.55L149.027 18.0161L149.181 17.5454L149.025 17.0757L147.602 17.55ZM146.052 19.525L145.28 18.2388L145.28 18.2388L146.052 19.525ZM148.752 20V17.375H145.752V20H148.752ZM148.627 16.7769L148.377 16.2019L145.626 17.3981L145.876 17.9731L148.627 16.7769ZM148.502 16.8V12.1H145.502V16.8H148.502ZM148.502 12.1C148.502 10.9334 148.125 9.84368 147.232 9.03685L145.221 11.2632C145.361 11.3897 145.502 11.6 145.502 12.1H148.502ZM147.25 9.05342C146.356 8.21869 145.135 7.95 143.902 7.95V10.95C144.769 10.95 145.098 11.148 145.203 11.2466L147.25 9.05342ZM143.902 7.95C143.019 7.95 142.151 8.09418 141.302 8.37697L142.251 11.223C142.803 11.0391 143.351 10.95 143.902 10.95V7.95ZM141.323 8.37015C140.494 8.63312 139.742 9.01143 139.095 9.52475L140.959 11.8752C141.278 11.6219 141.693 11.4002 142.23 11.2298L141.323 8.37015ZM141.361 10.0145L139.961 7.28953L137.292 8.66047L138.692 11.3855L141.361 10.0145ZM139.491 9.20122C140.058 8.8018 140.776 8.46774 141.673 8.2216L140.88 5.32839C139.711 5.64893 138.662 6.11487 137.763 6.74878L139.491 9.20122ZM141.673 8.22161C142.578 7.97355 143.495 7.85 144.427 7.85V4.85C143.225 4.85 142.042 5.00979 140.88 5.32839L141.673 8.22161ZM144.427 7.85C146.254 7.85 147.453 8.28034 148.228 8.94125L150.175 6.65875C148.683 5.38633 146.699 4.85 144.427 4.85V7.85ZM148.228 8.94125C148.915 9.52702 149.402 10.541 149.402 12.325H152.402C152.402 10.009 151.755 8.00632 150.175 6.65875L148.228 8.94125ZM149.402 12.325V20H152.402V12.325H149.402ZM150.902 18.5H147.252V21.5H150.902V18.5ZM143.152 18.7C142.264 18.7 141.591 18.5516 141.086 18.3157L139.817 21.0343C140.812 21.4984 141.939 21.7 143.152 21.7V18.7ZM141.11 18.3274C140.571 18.0637 140.218 17.7425 139.985 17.3837L137.468 19.0163C138.035 19.8908 138.832 20.553 139.793 21.0226L141.11 18.3274ZM139.985 17.3837C139.75 17.0209 139.627 16.6151 139.627 16.125H136.627C136.627 17.1682 136.904 18.1458 137.468 19.0163L139.985 17.3837ZM139.627 16.125C139.627 15.5747 139.755 15.1624 139.966 14.8326L137.438 13.2174C136.882 14.0876 136.627 15.0753 136.627 16.125H139.627ZM139.95 14.8571C140.139 14.573 140.484 14.2726 141.124 14.0215L140.029 11.2285C138.97 11.644 138.064 12.277 137.454 13.1929L139.95 14.8571ZM141.148 14.012C141.751 13.7637 142.644 13.6 143.902 13.6V10.6C142.426 10.6 141.103 10.7863 140.006 11.238L141.148 14.012ZM143.902 13.6H147.477V10.6H143.902V13.6ZM145.977 12.1V14.375H148.977V12.1H145.977ZM147.477 12.875H144.327V15.875H147.477V12.875ZM144.327 12.875C143.354 12.875 142.237 13.0123 141.45 13.6861L143.403 15.9639C143.337 16.0202 143.336 15.9883 143.51 15.9471C143.678 15.9074 143.941 15.875 144.327 15.875V12.875ZM141.423 13.7101C140.773 14.2956 140.427 15.0764 140.427 15.95H143.427C143.427 15.9304 143.428 15.9225 143.428 15.9236C143.428 15.924 143.428 15.926 143.427 15.9293C143.426 15.9325 143.424 15.9363 143.422 15.9405C143.421 15.9446 143.419 15.9483 143.417 15.9514C143.415 15.9544 143.414 15.9563 143.413 15.9569C143.412 15.9584 143.416 15.9523 143.43 15.9399L141.423 13.7101ZM140.427 15.95C140.427 16.8967 140.819 17.7381 141.577 18.3313L143.426 15.9687C143.41 15.9563 143.406 15.9509 143.409 15.9541C143.41 15.9556 143.413 15.9585 143.415 15.9627C143.418 15.967 143.421 15.9718 143.423 15.9768C143.426 15.9819 143.427 15.9863 143.428 15.9897C143.43 15.9931 143.43 15.9946 143.43 15.9938C143.429 15.9924 143.427 15.979 143.427 15.95H140.427ZM141.635 18.374C142.37 18.8952 143.252 19.075 144.127 19.075V16.075C143.635 16.075 143.433 15.9715 143.369 15.926L141.635 18.374ZM144.127 19.075C145.017 19.075 145.865 18.8666 146.63 18.4222L145.123 15.8278C144.855 15.9834 144.536 16.075 144.127 16.075V19.075ZM146.661 18.4039C147.475 17.9048 148.055 17.1789 148.4 16.2937L145.604 15.2063C145.481 15.5211 145.312 15.7119 145.093 15.8461L146.661 18.4039ZM145.579 16.2243L146.179 18.0243L149.025 17.0757L148.425 15.2757L145.579 16.2243ZM146.176 17.0839C146 17.6233 145.706 17.983 145.28 18.2388L146.823 20.8112C147.897 20.167 148.637 19.21 149.027 18.0161L146.176 17.0839ZM145.28 18.2388C144.831 18.5079 144.156 18.7 143.152 18.7V21.7C144.514 21.7 145.772 21.4421 146.823 20.8112L145.28 18.2388Z" fill="#FFFFEF" mask="url(#path-1-outside-1_546_9)"/>
</svg>
