<svg width="125" height="26" viewBox="0 0 125 26" fill="none" xmlns="http://www.w3.org/2000/svg">
<mask id="path-1-outside-1_546_15" maskUnits="userSpaceOnUse" x="-2" y="-2" width="128" height="29" fill="black">
<rect fill="white" x="-2" y="-2" width="128" height="29"/>
<path d="M0.203418 20V2.5H7.77842C9.34509 2.5 10.6951 2.75833 11.8284 3.275C12.9618 3.775 13.8368 4.5 14.4534 5.45C15.0701 6.4 15.3784 7.53333 15.3784 8.85C15.3784 10.15 15.0701 11.275 14.4534 12.225C13.8368 13.175 12.9618 13.9083 11.8284 14.425C10.6951 14.925 9.34509 15.175 7.77842 15.175H2.45342L4.25342 13.35V20H0.203418ZM4.25342 13.8L2.45342 11.875H7.55342C8.80342 11.875 9.73675 11.6083 10.3534 11.075C10.9701 10.5417 11.2784 9.8 11.2784 8.85C11.2784 7.88333 10.9701 7.13333 10.3534 6.6C9.73675 6.06667 8.80342 5.8 7.55342 5.8H2.45342L4.25342 3.875V13.8ZM25.8954 20.2C24.3621 20.2 23.0121 19.9 21.8454 19.3C20.6954 18.7 19.8037 17.8833 19.1704 16.85C18.5371 15.8 18.2204 14.6083 18.2204 13.275C18.2204 11.925 18.5287 10.7333 19.1454 9.7C19.7787 8.65 20.6371 7.83333 21.7204 7.25C22.8037 6.65 24.0287 6.35 25.3954 6.35C26.7121 6.35 27.8954 6.63333 28.9454 7.2C30.0121 7.75 30.8537 8.55 31.4704 9.6C32.0871 10.6333 32.3954 11.875 32.3954 13.325C32.3954 13.475 32.3871 13.65 32.3704 13.85C32.3537 14.0333 32.3371 14.2083 32.3204 14.375H21.3954V12.1H30.2704L28.7704 12.775C28.7704 12.075 28.6287 11.4667 28.3454 10.95C28.0621 10.4333 27.6704 10.0333 27.1704 9.75C26.6704 9.45 26.0871 9.3 25.4204 9.3C24.7537 9.3 24.1621 9.45 23.6454 9.75C23.1454 10.0333 22.7537 10.4417 22.4704 10.975C22.1871 11.4917 22.0454 12.1083 22.0454 12.825V13.425C22.0454 14.1583 22.2037 14.8083 22.5204 15.375C22.8537 15.925 23.3121 16.35 23.8954 16.65C24.4954 16.9333 25.1954 17.075 25.9954 17.075C26.7121 17.075 27.3371 16.9667 27.8704 16.75C28.4204 16.5333 28.9204 16.2083 29.3704 15.775L31.4454 18.025C30.8287 18.725 30.0537 19.2667 29.1204 19.65C28.1871 20.0167 27.1121 20.2 25.8954 20.2ZM44.4169 6.35C45.4836 6.35 46.4336 6.56667 47.2669 7C48.1169 7.41667 48.7836 8.06667 49.2669 8.95C49.7502 9.81667 49.9919 10.9333 49.9919 12.3V20H46.0919V12.9C46.0919 11.8167 45.8502 11.0167 45.3669 10.5C44.9002 9.98333 44.2336 9.725 43.3669 9.725C42.7502 9.725 42.1919 9.85833 41.6919 10.125C41.2086 10.375 40.8252 10.7667 40.5419 11.3C40.2752 11.8333 40.1419 12.5167 40.1419 13.35V20H36.2419V6.55H39.9669V10.275L39.2669 9.15C39.7502 8.25 40.4419 7.55833 41.3419 7.075C42.2419 6.59167 43.2669 6.35 44.4169 6.35ZM61.1997 25.05C59.933 25.05 58.708 24.8917 57.5247 24.575C56.358 24.275 55.383 23.8167 54.5997 23.2L56.1497 20.4C56.7164 20.8667 57.433 21.2333 58.2997 21.5C59.183 21.7833 60.0497 21.925 60.8997 21.925C62.283 21.925 63.283 21.6167 63.8997 21C64.533 20.3833 64.8497 19.4667 64.8497 18.25V16.225L65.0997 12.85L65.0497 9.45V6.55H68.7497V17.75C68.7497 20.25 68.0997 22.0917 66.7997 23.275C65.4997 24.4583 63.633 25.05 61.1997 25.05ZM60.5997 19.35C59.3497 19.35 58.2164 19.0833 57.1997 18.55C56.1997 18 55.3914 17.2417 54.7747 16.275C54.1747 15.2917 53.8747 14.15 53.8747 12.85C53.8747 11.5333 54.1747 10.3917 54.7747 9.425C55.3914 8.44167 56.1997 7.68333 57.1997 7.15C58.2164 6.61667 59.3497 6.35 60.5997 6.35C61.733 6.35 62.733 6.58333 63.5997 7.05C64.4664 7.5 65.1414 8.20833 65.6247 9.175C66.108 10.125 66.3497 11.35 66.3497 12.85C66.3497 14.3333 66.108 15.5583 65.6247 16.525C65.1414 17.475 64.4664 18.1833 63.5997 18.65C62.733 19.1167 61.733 19.35 60.5997 19.35ZM61.3747 16.15C62.058 16.15 62.6664 16.0167 63.1997 15.75C63.733 15.4667 64.1497 15.075 64.4497 14.575C64.7497 14.075 64.8997 13.5 64.8997 12.85C64.8997 12.1833 64.7497 11.6083 64.4497 11.125C64.1497 10.625 63.733 10.2417 63.1997 9.975C62.6664 9.69167 62.058 9.55 61.3747 9.55C60.6914 9.55 60.083 9.69167 59.5497 9.975C59.0164 10.2417 58.5914 10.625 58.2747 11.125C57.9747 11.6083 57.8247 12.1833 57.8247 12.85C57.8247 13.5 57.9747 14.075 58.2747 14.575C58.5914 15.075 59.0164 15.4667 59.5497 15.75C60.083 16.0167 60.6914 16.15 61.3747 16.15ZM81.8796 20V17.375L81.6296 16.8V12.1C81.6296 11.2667 81.3713 10.6167 80.8546 10.15C80.3546 9.68333 79.5796 9.45 78.5296 9.45C77.8129 9.45 77.1046 9.56667 76.4046 9.8C75.7213 10.0167 75.1379 10.3167 74.6546 10.7L73.2546 7.975C73.9879 7.45833 74.8713 7.05833 75.9046 6.775C76.9379 6.49167 77.9879 6.35 79.0546 6.35C81.1046 6.35 82.6963 6.83333 83.8296 7.8C84.9629 8.76667 85.5296 10.275 85.5296 12.325V20H81.8796ZM77.7796 20.2C76.7296 20.2 75.8296 20.025 75.0796 19.675C74.3296 19.3083 73.7546 18.8167 73.3546 18.2C72.9546 17.5833 72.7546 16.8917 72.7546 16.125C72.7546 15.325 72.9463 14.625 73.3296 14.025C73.7296 13.425 74.3546 12.9583 75.2046 12.625C76.0546 12.275 77.1629 12.1 78.5296 12.1H82.1046V14.375H78.9546C78.0379 14.375 77.4046 14.525 77.0546 14.825C76.7213 15.125 76.5546 15.5 76.5546 15.95C76.5546 16.45 76.7463 16.85 77.1296 17.15C77.5296 17.4333 78.0713 17.575 78.7546 17.575C79.4046 17.575 79.9879 17.425 80.5046 17.125C81.0213 16.8083 81.3963 16.35 81.6296 15.75L82.2296 17.55C81.9463 18.4167 81.4296 19.075 80.6796 19.525C79.9296 19.975 78.9629 20.2 77.7796 20.2ZM89.3093 25.05C88.7093 25.05 88.1343 24.9833 87.5843 24.85C87.0343 24.7333 86.5676 24.55 86.1843 24.3L87.2343 21.475C87.6843 21.7917 88.2343 21.95 88.8843 21.95C89.3676 21.95 89.7509 21.7833 90.0343 21.45C90.3343 21.1333 90.4843 20.65 90.4843 20V6.55H94.3843V19.975C94.3843 21.525 93.9426 22.7583 93.0593 23.675C92.1759 24.5917 90.9259 25.05 89.3093 25.05ZM92.4343 4.675C91.7176 4.675 91.1343 4.46667 90.6843 4.05C90.2343 3.63333 90.0093 3.11667 90.0093 2.5C90.0093 1.88333 90.2343 1.36667 90.6843 0.949999C91.1343 0.533332 91.7176 0.324998 92.4343 0.324998C93.1509 0.324998 93.7343 0.524999 94.1843 0.925C94.6343 1.30833 94.8593 1.80833 94.8593 2.425C94.8593 3.075 94.6343 3.61667 94.1843 4.05C93.7509 4.46667 93.1676 4.675 92.4343 4.675ZM107.475 20V17.375L107.225 16.8V12.1C107.225 11.2667 106.967 10.6167 106.45 10.15C105.95 9.68333 105.175 9.45 104.125 9.45C103.409 9.45 102.7 9.56667 102 9.8C101.317 10.0167 100.734 10.3167 100.25 10.7L98.8503 7.975C99.5836 7.45833 100.467 7.05833 101.5 6.775C102.534 6.49167 103.584 6.35 104.65 6.35C106.7 6.35 108.292 6.83333 109.425 7.8C110.559 8.76667 111.125 10.275 111.125 12.325V20H107.475ZM103.375 20.2C102.325 20.2 101.425 20.025 100.675 19.675C99.9253 19.3083 99.3503 18.8167 98.9503 18.2C98.5503 17.5833 98.3503 16.8917 98.3503 16.125C98.3503 15.325 98.542 14.625 98.9253 14.025C99.3253 13.425 99.9503 12.9583 100.8 12.625C101.65 12.275 102.759 12.1 104.125 12.1H107.7V14.375H104.55C103.634 14.375 103 14.525 102.65 14.825C102.317 15.125 102.15 15.5 102.15 15.95C102.15 16.45 102.342 16.85 102.725 17.15C103.125 17.4333 103.667 17.575 104.35 17.575C105 17.575 105.584 17.425 106.1 17.125C106.617 16.8083 106.992 16.35 107.225 15.75L107.825 17.55C107.542 18.4167 107.025 19.075 106.275 19.525C105.525 19.975 104.559 20.2 103.375 20.2ZM115.905 20V6.55H119.63V10.35L119.105 9.25C119.505 8.3 120.147 7.58333 121.03 7.1C121.913 6.6 122.988 6.35 124.255 6.35V9.95C124.088 9.93333 123.938 9.925 123.805 9.925C123.672 9.90833 123.53 9.9 123.38 9.9C122.313 9.9 121.447 10.2083 120.78 10.825C120.13 11.425 119.805 12.3667 119.805 13.65V20H115.905Z"/>
</mask>
<path d="M0.203418 20H-1.29658V21.5H0.203418V20ZM0.203418 2.5V0.999999H-1.29658V2.5H0.203418ZM11.8284 3.275L11.2062 4.63986L11.2146 4.64367L11.223 4.64738L11.8284 3.275ZM14.4534 5.45L13.1952 6.26671L13.1953 6.26671L14.4534 5.45ZM14.4534 12.225L13.1952 11.4083L14.4534 12.225ZM11.8284 14.425L12.4339 15.7974L12.4423 15.7937L12.4506 15.7899L11.8284 14.425ZM2.45342 15.175L1.38547 14.1217L-1.13287 16.675H2.45342V15.175ZM4.25342 13.35H5.75342V9.69306L3.18547 12.2967L4.25342 13.35ZM4.25342 20V21.5H5.75342V20H4.25342ZM4.25342 13.8L3.15778 14.8245L5.75342 17.6004V13.8H4.25342ZM2.45342 11.875V10.375H-1.00278L1.35778 12.8995L2.45342 11.875ZM2.45342 5.8L1.35778 4.77551L-1.00278 7.3H2.45342V5.8ZM4.25342 3.875H5.75342V0.0746186L3.15778 2.85051L4.25342 3.875ZM1.70342 20V2.5H-1.29658V20H1.70342ZM0.203418 4H7.77842V0.999999H0.203418V4ZM7.77842 4C9.18404 4 10.3117 4.23209 11.2062 4.63986L12.4506 1.91014C11.0784 1.28457 9.50613 0.999999 7.77842 0.999999V4ZM11.223 4.64738C12.1154 5.04108 12.7523 5.58431 13.1952 6.26671L15.7116 4.63329C14.9212 3.41569 13.8082 2.50892 12.4339 1.90262L11.223 4.64738ZM13.1953 6.26671C13.6298 6.9361 13.8784 7.77507 13.8784 8.85H16.8784C16.8784 7.2916 16.5104 5.8639 15.7116 4.63329L13.1953 6.26671ZM13.8784 8.85C13.8784 9.90407 13.6317 10.7359 13.1952 11.4083L15.7116 13.0417C16.5084 11.8141 16.8784 10.3959 16.8784 8.85H13.8784ZM13.1952 11.4083C12.7494 12.0951 12.1066 12.6497 11.2062 13.0601L12.4506 15.7899C13.8169 15.167 14.9241 14.2549 15.7116 13.0417L13.1952 11.4083ZM11.223 13.0526C10.3238 13.4493 9.18988 13.675 7.77842 13.675V16.675C9.50029 16.675 11.0664 16.4007 12.4339 15.7974L11.223 13.0526ZM7.77842 13.675H2.45342V16.675H7.77842V13.675ZM3.52137 16.2283L5.32137 14.4033L3.18547 12.2967L1.38547 14.1217L3.52137 16.2283ZM2.75342 13.35V20H5.75342V13.35H2.75342ZM4.25342 18.5H0.203418V21.5H4.25342V18.5ZM5.34905 12.7755L3.54905 10.8505L1.35778 12.8995L3.15778 14.8245L5.34905 12.7755ZM2.45342 13.375H7.55342V10.375H2.45342V13.375ZM7.55342 13.375C8.97946 13.375 10.3325 13.0762 11.3346 12.2095L9.37219 9.94045C9.14098 10.1404 8.62738 10.375 7.55342 10.375V13.375ZM11.3346 12.2095C12.3365 11.343 12.7784 10.156 12.7784 8.85H9.77842C9.77842 9.44404 9.60363 9.74029 9.37219 9.94045L11.3346 12.2095ZM12.7784 8.85C12.7784 7.53674 12.3426 6.33717 11.3346 5.46545L9.37219 7.73454C9.5976 7.92949 9.77842 8.22992 9.77842 8.85H12.7784ZM11.3346 5.46545C10.3325 4.59875 8.97946 4.3 7.55342 4.3V7.3C8.62738 7.3 9.14098 7.53458 9.37219 7.73454L11.3346 5.46545ZM7.55342 4.3H2.45342V7.3H7.55342V4.3ZM3.54905 6.82449L5.34905 4.89949L3.15778 2.85051L1.35778 4.77551L3.54905 6.82449ZM2.75342 3.875V13.8H5.75342V3.875H2.75342ZM21.8454 19.3L21.1515 20.6299L21.1594 20.6339L21.8454 19.3ZM19.1704 16.85L17.8859 17.6248L17.8915 17.6338L19.1704 16.85ZM19.1454 9.7L17.861 8.92525L17.8573 8.93131L19.1454 9.7ZM21.7204 7.25L22.4316 8.57071L22.4394 8.56649L22.4472 8.56219L21.7204 7.25ZM28.9454 7.2L28.233 8.52003L28.2454 8.52674L28.258 8.5332L28.9454 7.2ZM31.4704 9.6L30.177 10.3597L30.1823 10.3687L31.4704 9.6ZM32.3704 13.85L33.8643 13.9858L33.8652 13.9746L32.3704 13.85ZM32.3204 14.375V15.875H33.6779L33.813 14.5243L32.3204 14.375ZM21.3954 14.375H19.8954V15.875H21.3954V14.375ZM21.3954 12.1V10.6H19.8954V12.1H21.3954ZM30.2704 12.1L30.886 13.4679L30.2704 10.6V12.1ZM28.7704 12.775H27.2704V15.0949L29.386 14.1429L28.7704 12.775ZM28.3454 10.95L27.0302 11.6712L27.0302 11.6712L28.3454 10.95ZM27.1704 9.75L26.3987 11.0362L26.4147 11.0458L26.4309 11.055L27.1704 9.75ZM23.6454 9.75L24.3849 11.055L24.3918 11.0511L24.3986 11.0472L23.6454 9.75ZM22.4704 10.975L23.7856 11.6962L23.7904 11.6875L23.7951 11.6787L22.4704 10.975ZM22.5204 15.375L21.211 16.1067L21.2239 16.1298L21.2376 16.1525L22.5204 15.375ZM23.8954 16.65L23.2094 17.9839L23.232 17.9955L23.2549 18.0064L23.8954 16.65ZM27.8704 16.75L27.3206 15.3544L27.3132 15.3573L27.3058 15.3603L27.8704 16.75ZM29.3704 15.775L30.4731 14.7581L29.434 13.6314L28.3299 14.6945L29.3704 15.775ZM31.4454 18.025L32.5709 19.0165L33.4647 18.002L32.5481 17.0081L31.4454 18.025ZM29.1204 19.65L29.6689 21.0461L29.6796 21.0419L29.6903 21.0375L29.1204 19.65ZM25.8954 18.7C24.5604 18.7 23.4528 18.4399 22.5314 17.9661L21.1594 20.6339C22.5714 21.3601 24.1637 21.7 25.8954 21.7V18.7ZM22.5393 17.9701C21.6126 17.4866 20.9307 16.8515 20.4493 16.0662L17.8915 17.6338C18.6768 18.9151 19.7783 19.9134 21.1516 20.6299L22.5393 17.9701ZM20.4548 16.0753C19.9748 15.2793 19.7204 14.36 19.7204 13.275H16.7204C16.7204 14.8567 17.0994 16.3207 17.886 17.6247L20.4548 16.0753ZM19.7204 13.275C19.7204 12.1619 19.9719 11.2422 20.4335 10.4687L17.8573 8.93131C17.0856 10.2245 16.7204 11.6881 16.7204 13.275H19.7204ZM20.4298 10.4747C20.9239 9.65561 21.5839 9.02713 22.4316 8.57071L21.0093 5.92929C19.6902 6.63953 18.6336 7.64439 17.861 8.92526L20.4298 10.4747ZM22.4472 8.56219C23.2856 8.09779 24.2561 7.85 25.3954 7.85V4.85C23.8014 4.85 22.3218 5.20221 20.9937 5.93781L22.4472 8.56219ZM25.3954 7.85C26.4896 7.85 27.4239 8.08337 28.233 8.52003L29.6578 5.87997C28.3669 5.1833 26.9345 4.85 25.3954 4.85V7.85ZM28.258 8.5332C29.0686 8.95117 29.7018 9.55049 30.177 10.3596L32.7638 8.84037C32.0057 7.5495 30.9556 6.54883 29.6328 5.86679L28.258 8.5332ZM30.1823 10.3687C30.6343 11.1261 30.8954 12.09 30.8954 13.325H33.8954C33.8954 11.66 33.5398 10.1406 32.7585 8.83131L30.1823 10.3687ZM30.8954 13.325C30.8954 13.4223 30.8899 13.554 30.8756 13.7254L33.8652 13.9746C33.8843 13.746 33.8954 13.5277 33.8954 13.325H30.8954ZM30.8766 13.7142C30.8603 13.8935 30.844 14.064 30.8279 14.2257L33.813 14.5243C33.8301 14.3527 33.8472 14.1732 33.8643 13.9858L30.8766 13.7142ZM32.3204 12.875H21.3954V15.875H32.3204V12.875ZM22.8954 14.375V12.1H19.8954V14.375H22.8954ZM21.3954 13.6H30.2704V10.6H21.3954V13.6ZM29.6549 10.7321L28.1549 11.4071L29.386 14.1429L30.886 13.4679L29.6549 10.7321ZM30.2704 12.775C30.2704 11.8702 30.0861 11.0046 29.6606 10.2287L27.0302 11.6712C27.1714 11.9287 27.2704 12.2797 27.2704 12.775H30.2704ZM29.6606 10.2288C29.2469 9.47432 28.6587 8.86927 27.9099 8.44497L26.4309 11.055C26.6821 11.1974 26.8772 11.3923 27.0302 11.6712L29.6606 10.2288ZM27.9422 8.46376C27.1772 8.00477 26.3192 7.8 25.4204 7.8V10.8C25.8549 10.8 26.1636 10.8952 26.3987 11.0362L27.9422 8.46376ZM25.4204 7.8C24.5206 7.8 23.6633 8.00506 22.8922 8.45282L24.3986 11.0472C24.6608 10.8949 24.9869 10.8 25.4204 10.8V7.8ZM22.9059 8.44497C22.1447 8.87632 21.5558 9.49937 21.1457 10.2713L23.7951 11.6787C23.9517 11.384 24.1461 11.1903 24.3849 11.055L22.9059 8.44497ZM21.1552 10.2538C20.727 11.0345 20.5454 11.9103 20.5454 12.825H23.5454C23.5454 12.3064 23.6471 11.9488 23.7856 11.6962L21.1552 10.2538ZM20.5454 12.825V13.425H23.5454V12.825H20.5454ZM20.5454 13.425C20.5454 14.3807 20.7539 15.2887 21.211 16.1067L23.8298 14.6433C23.6536 14.328 23.5454 13.9359 23.5454 13.425H20.5454ZM21.2376 16.1525C21.7176 16.9445 22.3847 17.5598 23.2094 17.9839L24.5814 15.3161C24.2394 15.1402 23.9899 14.9055 23.8032 14.5975L21.2376 16.1525ZM23.2549 18.0064C24.0921 18.4017 25.0188 18.575 25.9954 18.575V15.575C25.3721 15.575 24.8987 15.4649 24.5359 15.2936L23.2549 18.0064ZM25.9954 18.575C26.8598 18.575 27.6843 18.4447 28.435 18.1397L27.3058 15.3603C26.9899 15.4887 26.5643 15.575 25.9954 15.575V18.575ZM28.4202 18.1456C29.163 17.853 29.8277 17.4171 30.4109 16.8555L28.3299 14.6945C28.0132 14.9996 27.6778 15.2137 27.3206 15.3544L28.4202 18.1456ZM28.2677 16.7919L30.3427 19.0419L32.5481 17.0081L30.4731 14.7581L28.2677 16.7919ZM30.3199 17.0335C29.8677 17.5467 29.2884 17.9594 28.5505 18.2625L29.6903 21.0375C30.8191 20.5739 31.7898 19.9033 32.5709 19.0165L30.3199 17.0335ZM28.5719 18.2539C27.8462 18.539 26.9633 18.7 25.8954 18.7V21.7C27.2609 21.7 28.5279 21.4944 29.6689 21.0461L28.5719 18.2539ZM47.2669 7L46.5749 8.33082L46.5907 8.33904L46.6067 8.34688L47.2669 7ZM49.2669 8.95L47.951 9.67004L47.9568 9.6806L49.2669 8.95ZM49.9919 20V21.5H51.4919V20H49.9919ZM46.0919 20H44.5919V21.5H46.0919V20ZM45.3669 10.5L44.2537 11.5054L44.2625 11.5152L44.2715 11.5247L45.3669 10.5ZM41.6919 10.125L42.381 11.4573L42.3894 11.453L42.3978 11.4485L41.6919 10.125ZM40.5419 11.3L39.2172 10.5963L39.2085 10.6126L39.2003 10.6292L40.5419 11.3ZM40.1419 20V21.5H41.6419V20H40.1419ZM36.2419 20H34.7419V21.5H36.2419V20ZM36.2419 6.55V5.05H34.7419V6.55H36.2419ZM39.9669 6.55H41.4669V5.05H39.9669V6.55ZM39.9669 10.275L38.6933 11.0675L41.4669 15.525V10.275H39.9669ZM39.2669 9.15L37.9454 8.44031L37.5346 9.20525L37.9933 9.94245L39.2669 9.15ZM41.3419 7.075L42.0516 8.39649L42.0516 8.39649L41.3419 7.075ZM44.4169 7.85C45.2756 7.85 45.9827 8.02292 46.5749 8.33082L47.9589 5.66917C46.8844 5.11042 45.6915 4.85 44.4169 4.85V7.85ZM46.6067 8.34688C47.1605 8.61837 47.6063 9.04 47.951 9.67002L50.5828 8.22998C49.9608 7.09333 49.0733 6.21497 47.9271 5.65312L46.6067 8.34688ZM47.9568 9.6806C48.2774 10.2554 48.4919 11.0971 48.4919 12.3H51.4919C51.4919 10.7695 51.223 9.37792 50.5769 8.2194L47.9568 9.6806ZM48.4919 12.3V20H51.4919V12.3H48.4919ZM49.9919 18.5H46.0919V21.5H49.9919V18.5ZM47.5919 20V12.9H44.5919V20H47.5919ZM47.5919 12.9C47.5919 11.6323 47.3142 10.3859 46.4623 9.47526L44.2715 11.5247C44.3863 11.6474 44.5919 12.001 44.5919 12.9H47.5919ZM46.48 9.49457C45.6619 8.58871 44.5462 8.225 43.3669 8.225V11.225C43.921 11.225 44.1386 11.378 44.2537 11.5054L46.48 9.49457ZM43.3669 8.225C42.5263 8.225 41.7221 8.40891 40.986 8.80147L42.3978 11.4485C42.6617 11.3078 42.9742 11.225 43.3669 11.225V8.225ZM41.0028 8.79267C40.2192 9.19798 39.6272 9.82452 39.2172 10.5963L41.8666 12.0037C42.0232 11.7088 42.1979 11.552 42.381 11.4573L41.0028 8.79267ZM39.2003 10.6292C38.7965 11.4367 38.6419 12.3708 38.6419 13.35H41.6419C41.6419 12.6625 41.754 12.2299 41.8835 11.9708L39.2003 10.6292ZM38.6419 13.35V20H41.6419V13.35H38.6419ZM40.1419 18.5H36.2419V21.5H40.1419V18.5ZM37.7419 20V6.55H34.7419V20H37.7419ZM36.2419 8.05H39.9669V5.05H36.2419V8.05ZM38.4669 6.55V10.275H41.4669V6.55H38.4669ZM41.2405 9.48255L40.5405 8.35755L37.9933 9.94245L38.6933 11.0675L41.2405 9.48255ZM40.5884 9.85969C40.9323 9.21929 41.4112 8.74041 42.0516 8.39649L40.6322 5.75351C39.4726 6.37626 38.5682 7.28071 37.9454 8.44031L40.5884 9.85969ZM42.0516 8.39649C42.7072 8.04442 43.483 7.85 44.4169 7.85V4.85C43.0508 4.85 41.7766 5.13891 40.6322 5.75351L42.0516 8.39649ZM57.5247 24.575L57.9125 23.126L57.9054 23.1241L57.8983 23.1223L57.5247 24.575ZM54.5997 23.2L53.2874 22.4735L52.6696 23.5896L53.6719 24.3786L54.5997 23.2ZM56.1497 20.4L57.1033 19.2421L55.7109 18.0955L54.8374 19.6735L56.1497 20.4ZM58.2997 21.5L58.7578 20.0717L58.7494 20.069L58.7408 20.0663L58.2997 21.5ZM63.8997 21L62.8533 19.9253L62.8461 19.9323L62.839 19.9393L63.8997 21ZM64.8497 16.225L63.3538 16.1142L63.3497 16.1695V16.225H64.8497ZM65.0997 12.85L66.5956 12.9608L66.6005 12.8945L66.5995 12.8279L65.0997 12.85ZM65.0497 9.45H63.5497V9.46103L63.5499 9.47206L65.0497 9.45ZM65.0497 6.55V5.05H63.5497V6.55H65.0497ZM68.7497 6.55H70.2497V5.05H68.7497V6.55ZM66.7997 23.275L67.8094 24.3843L67.8094 24.3843L66.7997 23.275ZM57.1997 18.55L56.4768 19.8643L56.4898 19.8715L56.5029 19.8783L57.1997 18.55ZM54.7747 16.275L53.4942 17.0563L53.5021 17.0691L53.5101 17.0817L54.7747 16.275ZM54.7747 9.425L53.5039 8.62806L53.5002 8.63396L54.7747 9.425ZM57.1997 7.15L56.5029 5.82165L56.4938 5.82647L57.1997 7.15ZM63.5997 7.05L62.8886 8.37071L62.8985 8.37605L62.9085 8.38124L63.5997 7.05ZM65.6247 9.175L64.283 9.84584L64.2878 9.85518L65.6247 9.175ZM65.6247 16.525L66.9617 17.2052L66.9663 17.1958L65.6247 16.525ZM63.5997 18.65L64.3109 19.9707L64.3109 19.9707L63.5997 18.65ZM63.1997 15.75L63.8705 17.0916L63.8871 17.0834L63.9034 17.0747L63.1997 15.75ZM64.4497 11.125L63.1635 11.8967L63.1693 11.9064L63.1752 11.916L64.4497 11.125ZM63.1997 9.975L62.496 11.2997L62.5123 11.3084L62.5289 11.3166L63.1997 9.975ZM59.5497 9.975L60.2205 11.3166L60.2371 11.3084L60.2534 11.2997L59.5497 9.975ZM58.2747 11.125L57.0074 10.3224L57.0002 10.334L58.2747 11.125ZM58.2747 14.575L56.9885 15.3467L56.9978 15.3623L57.0075 15.3776L58.2747 14.575ZM59.5497 15.75L58.846 17.0747L58.8623 17.0834L58.8789 17.0916L59.5497 15.75ZM61.1997 23.55C60.0595 23.55 58.9651 23.4077 57.9125 23.126L57.1369 26.024C58.451 26.3757 59.8066 26.55 61.1997 26.55V23.55ZM57.8983 23.1223C56.8922 22.8636 56.1168 22.4852 55.5275 22.0214L53.6719 24.3786C54.6493 25.1481 55.8239 25.6864 57.1511 26.0277L57.8983 23.1223ZM55.912 23.9265L57.462 21.1265L54.8374 19.6735L53.2874 22.4735L55.912 23.9265ZM55.1961 21.5579C55.945 22.1746 56.8474 22.6225 57.8586 22.9337L58.7408 20.0663C58.0187 19.8441 57.4877 19.5587 57.1033 19.2421L55.1961 21.5579ZM57.8416 22.9283C58.8595 23.2548 59.8807 23.425 60.8997 23.425V20.425C60.2187 20.425 59.5066 20.3118 58.7578 20.0717L57.8416 22.9283ZM60.8997 23.425C62.4556 23.425 63.9355 23.0855 64.9604 22.0607L62.839 19.9393C62.6306 20.1478 62.1105 20.425 60.8997 20.425V23.425ZM64.9461 22.0747C65.965 21.0827 66.3497 19.7152 66.3497 18.25H63.3497C63.3497 19.2181 63.1011 19.684 62.8533 19.9253L64.9461 22.0747ZM66.3497 18.25V16.225H63.3497V18.25H66.3497ZM66.3456 16.3358L66.5956 12.9608L63.6038 12.7392L63.3538 16.1142L66.3456 16.3358ZM66.5995 12.8279L66.5495 9.42794L63.5499 9.47206L63.5999 12.8721L66.5995 12.8279ZM66.5497 9.45V6.55H63.5497V9.45H66.5497ZM65.0497 8.05H68.7497V5.05H65.0497V8.05ZM67.2497 6.55V17.75H70.2497V6.55H67.2497ZM67.2497 17.75C67.2497 20.0103 66.6643 21.3699 65.79 22.1657L67.8094 24.3843C69.5351 22.8135 70.2497 20.4897 70.2497 17.75H67.2497ZM65.79 22.1657C64.8569 23.015 63.4038 23.55 61.1997 23.55V26.55C63.8623 26.55 66.1425 25.9016 67.8094 24.3843L65.79 22.1657ZM60.5997 17.85C59.5704 17.85 58.6795 17.6324 57.8965 17.2217L56.5029 19.8783C57.7532 20.5342 59.129 20.85 60.5997 20.85V17.85ZM57.9226 17.2357C57.1439 16.8074 56.5214 16.2241 56.0393 15.4683L53.5101 17.0817C54.2613 18.2593 55.2555 19.1926 56.4768 19.8643L57.9226 17.2357ZM56.0552 15.4937C55.6166 14.7749 55.3747 13.9107 55.3747 12.85H52.3747C52.3747 14.3893 52.7329 15.8085 53.4942 17.0563L56.0552 15.4937ZM55.3747 12.85C55.3747 11.7681 55.6186 10.9098 56.0492 10.216L53.5002 8.63396C52.7309 9.87352 52.3747 11.2986 52.3747 12.85H55.3747ZM56.0455 10.2219C56.5266 9.45482 57.1424 8.88057 57.9056 8.47353L56.4938 5.82647C55.257 6.4861 54.2562 7.42851 53.5039 8.62807L56.0455 10.2219ZM57.8965 8.47832C58.6795 8.06756 59.5704 7.85 60.5997 7.85V4.85C59.129 4.85 57.7532 5.16577 56.5029 5.82168L57.8965 8.47832ZM60.5997 7.85C61.5227 7.85 62.2715 8.03846 62.8886 8.37071L64.3109 5.72929C63.1945 5.1282 61.9434 4.85 60.5997 4.85V7.85ZM62.9085 8.38124C63.4641 8.66975 63.9255 9.1307 64.2831 9.84582L66.9663 8.50418C66.3572 7.28596 65.4686 6.33025 64.2909 5.71876L62.9085 8.38124ZM64.2878 9.85518C64.6293 10.5265 64.8497 11.496 64.8497 12.85H67.8497C67.8497 11.204 67.5868 9.72354 66.9616 8.49481L64.2878 9.85518ZM64.8497 12.85C64.8497 14.1825 64.6309 15.1585 64.2831 15.8542L66.9663 17.1958C67.5852 15.9581 67.8497 14.4841 67.8497 12.85H64.8497ZM64.2878 15.8448C63.9309 16.5463 63.4638 17.0196 62.8886 17.3293L64.3109 19.9707C65.469 19.3471 66.3518 18.4037 66.9616 17.2052L64.2878 15.8448ZM62.8886 17.3293C62.2715 17.6615 61.5227 17.85 60.5997 17.85V20.85C61.9434 20.85 63.1945 20.5718 64.3109 19.9707L62.8886 17.3293ZM61.3747 17.65C62.2568 17.65 63.1004 17.4767 63.8705 17.0916L62.5289 14.4084C62.2323 14.5566 61.8593 14.65 61.3747 14.65V17.65ZM63.9034 17.0747C64.6686 16.6682 65.2905 16.0892 65.7359 15.3467L63.1635 13.8033C63.0089 14.0608 62.7975 14.2651 62.496 14.4253L63.9034 17.0747ZM65.7359 15.3467C66.1914 14.5876 66.3997 13.7398 66.3997 12.85H63.3997C63.3997 13.2602 63.308 13.5624 63.1635 13.8033L65.7359 15.3467ZM66.3997 12.85C66.3997 11.9526 66.1954 11.0931 65.7242 10.334L63.1752 11.916C63.3041 12.1236 63.3997 12.4141 63.3997 12.85H66.3997ZM65.7359 10.3533C65.2857 9.60285 64.6529 9.02455 63.8705 8.63336L62.5289 11.3166C62.8132 11.4588 63.0137 11.6471 63.1635 11.8967L65.7359 10.3533ZM63.9034 8.65033C63.1263 8.23747 62.2708 8.05 61.3747 8.05V11.05C61.8453 11.05 62.2065 11.1459 62.496 11.2997L63.9034 8.65033ZM61.3747 8.05C60.4786 8.05 59.6231 8.23747 58.846 8.65033L60.2534 11.2997C60.543 11.1459 60.9041 11.05 61.3747 11.05V8.05ZM58.8789 8.63336C58.1033 9.02113 57.4713 9.58999 57.0075 10.3224L59.5419 11.9276C59.7114 11.66 59.9294 11.4622 60.2205 11.3166L58.8789 8.63336ZM57.0002 10.334C56.5291 11.0931 56.3247 11.9526 56.3247 12.85H59.3247C59.3247 12.4141 59.4204 12.1236 59.5492 11.916L57.0002 10.334ZM56.3247 12.85C56.3247 13.7398 56.533 14.5876 56.9885 15.3467L59.5609 13.8033C59.4164 13.5624 59.3247 13.2602 59.3247 12.85H56.3247ZM57.0075 15.3776C57.4664 16.1022 58.0876 16.6718 58.846 17.0747L60.2534 14.4253C59.9452 14.2616 59.7163 14.0478 59.5419 13.7724L57.0075 15.3776ZM58.8789 17.0916C59.649 17.4767 60.4926 17.65 61.3747 17.65V14.65C60.8901 14.65 60.5171 14.5566 60.2205 14.4084L58.8789 17.0916ZM81.8796 20H80.3796V21.5H81.8796V20ZM81.8796 17.375H83.3796V17.063L83.2552 16.7769L81.8796 17.375ZM81.6296 16.8H80.1296V17.112L80.254 17.3981L81.6296 16.8ZM80.8546 10.15L79.8311 11.2466L79.8401 11.2549L79.8492 11.2632L80.8546 10.15ZM76.4046 9.8L76.858 11.2298L76.8685 11.2265L76.8789 11.223L76.4046 9.8ZM74.6546 10.7L73.3204 11.3855L74.1553 13.0105L75.5867 11.8752L74.6546 10.7ZM73.2546 7.975L72.3907 6.74878L71.3242 7.50012L71.9204 8.66047L73.2546 7.975ZM75.9046 6.775L75.5079 5.32839L75.5079 5.32839L75.9046 6.775ZM83.8296 7.8L84.803 6.65875L84.803 6.65875L83.8296 7.8ZM85.5296 20V21.5H87.0296V20H85.5296ZM75.0796 19.675L74.4208 21.0226L74.433 21.0285L74.4453 21.0343L75.0796 19.675ZM73.3546 18.2L74.613 17.3837L74.613 17.3837L73.3546 18.2ZM73.3296 14.025L72.0815 13.1929L72.0734 13.2051L72.0655 13.2174L73.3296 14.025ZM75.2046 12.625L75.7522 14.0215L75.764 14.0168L75.7757 14.012L75.2046 12.625ZM82.1046 12.1H83.6046V10.6H82.1046V12.1ZM82.1046 14.375V15.875H83.6046V14.375H82.1046ZM77.0546 14.825L76.0784 13.6861L76.0646 13.6979L76.0511 13.7101L77.0546 14.825ZM77.1296 17.15L76.2051 18.3313L76.2333 18.3533L76.2626 18.374L77.1296 17.15ZM80.5046 17.125L81.2578 18.4222L81.2732 18.4132L81.2884 18.4039L80.5046 17.125ZM81.6296 15.75L83.0526 15.2757L81.7382 11.3323L80.2316 15.2063L81.6296 15.75ZM82.2296 17.55L83.6553 18.0161L83.8092 17.5454L83.6526 17.0757L82.2296 17.55ZM80.6796 19.525L79.9078 18.2388L79.9078 18.2388L80.6796 19.525ZM83.3796 20V17.375H80.3796V20H83.3796ZM83.2552 16.7769L83.0052 16.2019L80.254 17.3981L80.504 17.9731L83.2552 16.7769ZM83.1296 16.8V12.1H80.1296V16.8H83.1296ZM83.1296 12.1C83.1296 10.9334 82.7533 9.84368 81.86 9.03685L79.8492 11.2632C79.9892 11.3897 80.1296 11.6 80.1296 12.1H83.1296ZM81.8781 9.05342C80.9837 8.21869 79.7625 7.95 78.5296 7.95V10.95C79.3967 10.95 79.7255 11.148 79.8311 11.2466L81.8781 9.05342ZM78.5296 7.95C77.6469 7.95 76.7786 8.09418 75.9302 8.37697L76.8789 11.223C77.4306 11.0391 77.9789 10.95 78.5296 10.95V7.95ZM75.9512 8.37015C75.1219 8.63312 74.3697 9.01143 73.7225 9.52475L75.5867 11.8752C75.9061 11.6219 76.3206 11.4002 76.858 11.2298L75.9512 8.37015ZM75.9888 10.0145L74.5888 7.28953L71.9204 8.66047L73.3204 11.3855L75.9888 10.0145ZM74.1185 9.20122C74.6854 8.8018 75.4036 8.46774 76.3012 8.2216L75.5079 5.32839C74.3389 5.64893 73.2904 6.11487 72.3907 6.74878L74.1185 9.20122ZM76.3012 8.22161C77.2059 7.97355 78.1225 7.85 79.0546 7.85V4.85C77.8533 4.85 76.6699 5.00979 75.5079 5.32839L76.3012 8.22161ZM79.0546 7.85C80.8818 7.85 82.0813 8.28034 82.8562 8.94125L84.803 6.65875C83.3112 5.38633 81.3274 4.85 79.0546 4.85V7.85ZM82.8562 8.94125C83.5429 9.52702 84.0296 10.541 84.0296 12.325H87.0296C87.0296 10.009 86.3829 8.00632 84.803 6.65875L82.8562 8.94125ZM84.0296 12.325V20H87.0296V12.325H84.0296ZM85.5296 18.5H81.8796V21.5H85.5296V18.5ZM77.7796 18.7C76.8918 18.7 76.2194 18.5516 75.7139 18.3157L74.4453 21.0343C75.4398 21.4984 76.5674 21.7 77.7796 21.7V18.7ZM75.7384 18.3274C75.1989 18.0637 74.8458 17.7425 74.613 17.3837L72.0961 19.0163C72.6634 19.8908 73.4603 20.553 74.4208 21.0226L75.7384 18.3274ZM74.613 17.3837C74.3777 17.0209 74.2546 16.6151 74.2546 16.125H71.2546C71.2546 17.1682 71.5315 18.1458 72.0961 19.0163L74.613 17.3837ZM74.2546 16.125C74.2546 15.5747 74.3829 15.1624 74.5936 14.8326L72.0655 13.2174C71.5096 14.0876 71.2546 15.0753 71.2546 16.125H74.2546ZM74.5777 14.8571C74.767 14.573 75.1117 14.2726 75.7522 14.0215L74.657 11.2285C73.5975 11.644 72.6921 12.277 72.0815 13.1929L74.5777 14.8571ZM75.7757 14.012C76.3787 13.7637 77.2722 13.6 78.5296 13.6V10.6C77.0536 10.6 75.7304 10.7863 74.6335 11.238L75.7757 14.012ZM78.5296 13.6H82.1046V10.6H78.5296V13.6ZM80.6046 12.1V14.375H83.6046V12.1H80.6046ZM82.1046 12.875H78.9546V15.875H82.1046V12.875ZM78.9546 12.875C77.9815 12.875 76.8645 13.0123 76.0784 13.6861L78.0308 15.9639C77.965 16.0202 77.9639 15.9883 78.1378 15.9471C78.3057 15.9074 78.5694 15.875 78.9546 15.875V12.875ZM76.0511 13.7101C75.4005 14.2956 75.0546 15.0764 75.0546 15.95H78.0546C78.0546 15.9304 78.0564 15.9225 78.0561 15.9236C78.0561 15.924 78.0556 15.926 78.0546 15.9293C78.0536 15.9325 78.0521 15.9363 78.0503 15.9405C78.0485 15.9446 78.0466 15.9483 78.0447 15.9514C78.0429 15.9544 78.0416 15.9563 78.0412 15.9569C78.0401 15.9584 78.0443 15.9523 78.058 15.9399L76.0511 13.7101ZM75.0546 15.95C75.0546 16.8967 75.4471 17.7381 76.2051 18.3313L78.0541 15.9687C78.0382 15.9563 78.0344 15.9509 78.0371 15.9541C78.0383 15.9556 78.0405 15.9585 78.0432 15.9627C78.046 15.967 78.0486 15.9718 78.0511 15.9768C78.0535 15.9819 78.0552 15.9863 78.0564 15.9897C78.0575 15.9931 78.0578 15.9946 78.0576 15.9938C78.0573 15.9924 78.0546 15.979 78.0546 15.95H75.0546ZM76.2626 18.374C76.9983 18.8952 77.8795 19.075 78.7546 19.075V16.075C78.263 16.075 78.0609 15.9715 77.9966 15.926L76.2626 18.374ZM78.7546 19.075C79.6452 19.075 80.4924 18.8666 81.2578 18.4222L79.7514 15.8278C79.4834 15.9834 79.164 16.075 78.7546 16.075V19.075ZM81.2884 18.4039C82.1027 17.9048 82.6833 17.1789 83.0276 16.2937L80.2316 15.2063C80.1092 15.5211 79.9398 15.7119 79.7207 15.8461L81.2884 18.4039ZM80.2066 16.2243L80.8066 18.0243L83.6526 17.0757L83.0526 15.2757L80.2066 16.2243ZM80.8038 17.0839C80.6275 17.6233 80.3342 17.983 79.9078 18.2388L81.4513 20.8112C82.525 20.167 83.265 19.21 83.6553 18.0161L80.8038 17.0839ZM79.9078 18.2388C79.4593 18.5079 78.7837 18.7 77.7796 18.7V21.7C79.1422 21.7 80.3999 21.4421 81.4513 20.8112L79.9078 18.2388ZM87.5843 24.85L87.9377 23.3922L87.9167 23.3871L87.8955 23.3826L87.5843 24.85ZM86.1843 24.3L84.7783 23.7774L84.3605 24.9014L85.3649 25.5564L86.1843 24.3ZM87.2343 21.475L88.0975 20.2483L86.5062 19.1285L85.8283 20.9524L87.2343 21.475ZM90.0343 21.45L88.9453 20.4184L88.9175 20.4477L88.8914 20.4785L90.0343 21.45ZM90.4843 6.55V5.05H88.9843V6.55H90.4843ZM94.3843 6.55H95.8843V5.05H94.3843V6.55ZM93.0593 23.675L91.9792 22.6342L91.9792 22.6342L93.0593 23.675ZM90.6843 4.05L89.6652 5.15064L89.6652 5.15064L90.6843 4.05ZM90.6843 0.949999L91.7034 2.05064L91.7034 2.05064L90.6843 0.949999ZM94.1843 0.925L93.1877 2.04611L93.1995 2.05661L93.2116 2.06686L94.1843 0.925ZM94.1843 4.05L95.2239 5.13125L95.2247 5.13048L94.1843 4.05ZM89.3093 23.55C88.8212 23.55 88.3652 23.4959 87.9377 23.3922L87.2309 26.3078C87.9033 26.4708 88.5974 26.55 89.3093 26.55V23.55ZM87.8955 23.3826C87.4865 23.2959 87.2012 23.1724 87.0037 23.0436L85.3649 25.5564C85.9341 25.9276 86.5821 26.1708 87.273 26.3174L87.8955 23.3826ZM87.5903 24.8226L88.6403 21.9976L85.8283 20.9524L84.7783 23.7774L87.5903 24.8226ZM86.371 22.7017C87.117 23.2267 87.9827 23.45 88.8843 23.45V20.45C88.4858 20.45 88.2515 20.3567 88.0975 20.2483L86.371 22.7017ZM88.8843 23.45C89.7557 23.45 90.5768 23.1278 91.1772 22.4215L88.8914 20.4785C88.8892 20.4811 88.8928 20.4764 88.903 20.4688C88.9079 20.4651 88.9134 20.4614 88.9194 20.4579C88.9254 20.4544 88.9311 20.4516 88.9362 20.4494C88.9468 20.4448 88.9509 20.4446 88.9448 20.4457C88.9381 20.447 88.919 20.45 88.8843 20.45V23.45ZM91.1232 22.4816C91.7916 21.7761 91.9843 20.8489 91.9843 20H88.9843C88.9843 20.2148 88.9589 20.3419 88.9392 20.4054C88.9214 20.4628 88.9139 20.4516 88.9453 20.4184L91.1232 22.4816ZM91.9843 20V6.55H88.9843V20H91.9843ZM90.4843 8.05H94.3843V5.05H90.4843V8.05ZM92.8843 6.55V19.975H95.8843V6.55H92.8843ZM92.8843 19.975C92.8843 21.2263 92.5368 22.0554 91.9792 22.6342L94.1394 24.7158C95.3484 23.4612 95.8843 21.8237 95.8843 19.975H92.8843ZM91.9792 22.6342C91.4502 23.1831 90.6347 23.55 89.3093 23.55V26.55C91.2172 26.55 92.9017 26.0002 94.1394 24.7158L91.9792 22.6342ZM92.4343 3.175C92.0275 3.175 91.83 3.06658 91.7034 2.94936L89.6652 5.15064C90.4386 5.86675 91.4077 6.175 92.4343 6.175V3.175ZM91.7034 2.94936C91.5619 2.81836 91.5093 2.70145 91.5093 2.5H88.5093C88.5093 3.53188 88.9066 4.4483 89.6652 5.15064L91.7034 2.94936ZM91.5093 2.5C91.5093 2.29855 91.5619 2.18164 91.7034 2.05064L89.6652 -0.150642C88.9066 0.551694 88.5093 1.46812 88.5093 2.5H91.5093ZM91.7034 2.05064C91.83 1.93342 92.0275 1.825 92.4343 1.825V-1.175C91.4077 -1.175 90.4386 -0.866755 89.6652 -0.150641L91.7034 2.05064ZM92.4343 1.825C92.8573 1.825 93.0628 1.93508 93.1877 2.04611L95.1808 -0.196113C94.4057 -0.88508 93.4446 -1.175 92.4343 -1.175V1.825ZM93.2116 2.06686C93.3108 2.15141 93.3593 2.22609 93.3593 2.425H96.3593C96.3593 1.39057 95.9577 0.465258 95.157 -0.216865L93.2116 2.06686ZM93.3593 2.425C93.3593 2.68587 93.2871 2.83153 93.1438 2.96952L95.2247 5.13048C95.9814 4.4018 96.3593 3.46413 96.3593 2.425H93.3593ZM93.1446 2.96875C93.0496 3.06011 92.8702 3.175 92.4343 3.175V6.175C93.4651 6.175 94.4523 5.87322 95.2239 5.13125L93.1446 2.96875ZM107.475 20H105.975V21.5H107.475V20ZM107.475 17.375H108.975V17.063L108.851 16.7769L107.475 17.375ZM107.225 16.8H105.725V17.112L105.85 17.3981L107.225 16.8ZM106.45 10.15L105.427 11.2466L105.436 11.2549L105.445 11.2632L106.45 10.15ZM102 9.8L102.454 11.2298L102.464 11.2265L102.475 11.223L102 9.8ZM100.25 10.7L98.9161 11.3855L99.751 13.0105L101.182 11.8752L100.25 10.7ZM98.8503 7.975L97.9864 6.74878L96.9199 7.50012L97.5161 8.66047L98.8503 7.975ZM101.5 6.775L101.104 5.32839L101.104 5.32839L101.5 6.775ZM109.425 7.8L110.399 6.65875L110.399 6.65875L109.425 7.8ZM111.125 20V21.5H112.625V20H111.125ZM100.675 19.675L100.016 21.0226L100.029 21.0285L100.041 21.0343L100.675 19.675ZM98.9503 18.2L100.209 17.3837L100.209 17.3837L98.9503 18.2ZM98.9253 14.025L97.6772 13.1929L97.6691 13.2051L97.6612 13.2174L98.9253 14.025ZM100.8 12.625L101.348 14.0215L101.36 14.0168L101.371 14.012L100.8 12.625ZM107.7 12.1H109.2V10.6H107.7V12.1ZM107.7 14.375V15.875H109.2V14.375H107.7ZM102.65 14.825L101.674 13.6861L101.66 13.6979L101.647 13.7101L102.65 14.825ZM102.725 17.15L101.801 18.3313L101.829 18.3533L101.858 18.374L102.725 17.15ZM106.1 17.125L106.853 18.4222L106.869 18.4132L106.884 18.4039L106.1 17.125ZM107.225 15.75L108.648 15.2757L107.334 11.3323L105.827 15.2063L107.225 15.75ZM107.825 17.55L109.251 18.0161L109.405 17.5454L109.248 17.0757L107.825 17.55ZM106.275 19.525L105.504 18.2388L105.504 18.2388L106.275 19.525ZM108.975 20V17.375H105.975V20H108.975ZM108.851 16.7769L108.601 16.2019L105.85 17.3981L106.1 17.9731L108.851 16.7769ZM108.725 16.8V12.1H105.725V16.8H108.725ZM108.725 12.1C108.725 10.9334 108.349 9.84368 107.456 9.03685L105.445 11.2632C105.585 11.3897 105.725 11.6 105.725 12.1H108.725ZM107.474 9.05342C106.579 8.21869 105.358 7.95 104.125 7.95V10.95C104.992 10.95 105.321 11.148 105.427 11.2466L107.474 9.05342ZM104.125 7.95C103.243 7.95 102.374 8.09418 101.526 8.37697L102.475 11.223C103.026 11.0391 103.575 10.95 104.125 10.95V7.95ZM101.547 8.37015C100.718 8.63312 99.9654 9.01143 99.3182 9.52475L101.182 11.8752C101.502 11.6219 101.916 11.4002 102.454 11.2298L101.547 8.37015ZM101.585 10.0145L100.185 7.28953L97.5161 8.66047L98.9161 11.3855L101.585 10.0145ZM99.7142 9.20122C100.281 8.8018 100.999 8.46774 101.897 8.2216L101.104 5.32839C99.9346 5.64893 98.8861 6.11487 97.9864 6.74878L99.7142 9.20122ZM101.897 8.22161C102.802 7.97355 103.718 7.85 104.65 7.85V4.85C103.449 4.85 102.266 5.00979 101.104 5.32839L101.897 8.22161ZM104.65 7.85C106.477 7.85 107.677 8.28034 108.452 8.94125L110.399 6.65875C108.907 5.38633 106.923 4.85 104.65 4.85V7.85ZM108.452 8.94125C109.139 9.52702 109.625 10.541 109.625 12.325H112.625C112.625 10.009 111.979 8.00632 110.399 6.65875L108.452 8.94125ZM109.625 12.325V20H112.625V12.325H109.625ZM111.125 18.5H107.475V21.5H111.125V18.5ZM103.375 18.7C102.487 18.7 101.815 18.5516 101.31 18.3157L100.041 21.0343C101.035 21.4984 102.163 21.7 103.375 21.7V18.7ZM101.334 18.3274C100.795 18.0637 100.441 17.7425 100.209 17.3837L97.6919 19.0163C98.2591 19.8908 99.056 20.553 100.016 21.0226L101.334 18.3274ZM100.209 17.3837C99.9734 17.0209 99.8503 16.6151 99.8503 16.125H96.8503C96.8503 17.1682 97.1272 18.1458 97.6919 19.0163L100.209 17.3837ZM99.8503 16.125C99.8503 15.5747 99.9786 15.1624 100.189 14.8326L97.6612 13.2174C97.1053 14.0876 96.8503 15.0753 96.8503 16.125H99.8503ZM100.173 14.8571C100.363 14.573 100.707 14.2726 101.348 14.0215L100.253 11.2285C99.1932 11.644 98.2878 12.277 97.6772 13.1929L100.173 14.8571ZM101.371 14.012C101.974 13.7637 102.868 13.6 104.125 13.6V10.6C102.649 10.6 101.326 10.7863 100.229 11.238L101.371 14.012ZM104.125 13.6H107.7V10.6H104.125V13.6ZM106.2 12.1V14.375H109.2V12.1H106.2ZM107.7 12.875H104.55V15.875H107.7V12.875ZM104.55 12.875C103.577 12.875 102.46 13.0123 101.674 13.6861L103.626 15.9639C103.561 16.0202 103.56 15.9883 103.733 15.9471C103.901 15.9074 104.165 15.875 104.55 15.875V12.875ZM101.647 13.7101C100.996 14.2956 100.65 15.0764 100.65 15.95H103.65C103.65 15.9304 103.652 15.9225 103.652 15.9236C103.652 15.924 103.651 15.926 103.65 15.9293C103.649 15.9325 103.648 15.9363 103.646 15.9405C103.644 15.9446 103.642 15.9483 103.64 15.9514C103.639 15.9544 103.637 15.9563 103.637 15.9569C103.636 15.9584 103.64 15.9523 103.654 15.9399L101.647 13.7101ZM100.65 15.95C100.65 16.8967 101.043 17.7381 101.801 18.3313L103.65 15.9687C103.634 15.9563 103.63 15.9509 103.633 15.9541C103.634 15.9556 103.636 15.9585 103.639 15.9627C103.642 15.967 103.644 15.9718 103.647 15.9768C103.649 15.9819 103.651 15.9863 103.652 15.9897C103.653 15.9931 103.653 15.9946 103.653 15.9938C103.653 15.9924 103.65 15.979 103.65 15.95H100.65ZM101.858 18.374C102.594 18.8952 103.475 19.075 104.35 19.075V16.075C103.859 16.075 103.657 15.9715 103.592 15.926L101.858 18.374ZM104.35 19.075C105.241 19.075 106.088 18.8666 106.853 18.4222L105.347 15.8278C105.079 15.9834 104.76 16.075 104.35 16.075V19.075ZM106.884 18.4039C107.698 17.9048 108.279 17.1789 108.623 16.2937L105.827 15.2063C105.705 15.5211 105.535 15.7119 105.316 15.8461L106.884 18.4039ZM105.802 16.2243L106.402 18.0243L109.248 17.0757L108.648 15.2757L105.802 16.2243ZM106.4 17.0839C106.223 17.6233 105.93 17.983 105.504 18.2388L107.047 20.8112C108.121 20.167 108.861 19.21 109.251 18.0161L106.4 17.0839ZM105.504 18.2388C105.055 18.5079 104.379 18.7 103.375 18.7V21.7C104.738 21.7 105.996 21.4421 107.047 20.8112L105.504 18.2388ZM115.905 20H114.405V21.5H115.905V20ZM115.905 6.55V5.05H114.405V6.55H115.905ZM119.63 6.55H121.13V5.05H119.63V6.55ZM119.63 10.35L118.276 10.9961L121.13 10.35H119.63ZM119.105 9.25L117.723 8.66791L117.461 9.28845L117.751 9.89609L119.105 9.25ZM121.03 7.1L121.75 8.41589L121.759 8.41071L121.769 8.40538L121.03 7.1ZM124.255 6.35H125.755V4.85H124.255V6.35ZM124.255 9.95L124.106 11.4426L125.755 11.6075V9.95H124.255ZM123.805 9.925L123.619 11.4134L123.712 11.425H123.805V9.925ZM120.78 10.825L121.797 11.9272L121.799 11.9261L120.78 10.825ZM119.805 20V21.5H121.305V20H119.805ZM117.405 20V6.55H114.405V20H117.405ZM115.905 8.05H119.63V5.05H115.905V8.05ZM118.13 6.55V10.35H121.13V6.55H118.13ZM120.984 9.70391L120.459 8.60391L117.751 9.89609L118.276 10.9961L120.984 9.70391ZM120.487 9.83209C120.759 9.18649 121.172 8.73237 121.75 8.41589L120.31 5.78411C119.122 6.43429 118.251 7.41351 117.723 8.66791L120.487 9.83209ZM121.769 8.40538C122.377 8.0609 123.184 7.85 124.255 7.85V4.85C122.793 4.85 121.449 5.1391 120.291 5.79461L121.769 8.40538ZM122.755 6.35V9.95H125.755V6.35H122.755ZM124.404 8.45744C124.2 8.43701 123.999 8.425 123.805 8.425V11.425C123.878 11.425 123.977 11.4297 124.106 11.4426L124.404 8.45744ZM123.991 8.43658C123.789 8.41137 123.585 8.4 123.38 8.4V11.4C123.475 11.4 123.554 11.4053 123.619 11.4134L123.991 8.43658ZM123.38 8.4C122.006 8.4 120.753 8.80678 119.761 9.72385L121.799 11.9261C122.14 11.6099 122.621 11.4 123.38 11.4V8.4ZM119.763 9.72279C118.688 10.7147 118.305 12.1394 118.305 13.65H121.305C121.305 12.594 121.572 12.1353 121.797 11.9272L119.763 9.72279ZM118.305 13.65V20H121.305V13.65H118.305ZM119.805 18.5H115.905V21.5H119.805V18.5Z" fill="#FFFFEF" mask="url(#path-1-outside-1_546_15)"/>
</svg>
