<svg width="313" height="291" viewBox="0 0 313 291" fill="none" xmlns="http://www.w3.org/2000/svg">
<path d="M22.3644 194.153H58.474C59.5381 194.153 60.5586 194.576 61.311 195.328C62.0635 196.08 62.4862 197.101 62.4862 198.165C62.4862 199.229 62.0635 200.25 61.311 201.002C60.5586 201.754 59.5381 202.177 58.474 202.177H17.6836C16.6195 202.177 15.599 201.754 14.8465 201.002C14.0941 200.25 13.6714 199.229 13.6714 198.165C13.6714 197.101 14.0941 196.08 14.8465 195.328C15.599 194.576 16.6195 194.153 17.6836 194.153H18.6866" stroke="#263238" stroke-miterlimit="10"/>
<path d="M50.4497 207.426H58.474C59.5381 207.426 60.5586 207.849 61.311 208.601C62.0635 209.354 62.4862 210.374 62.4862 211.438C62.4862 212.503 62.0635 213.523 61.311 214.275C60.5586 215.028 59.5381 215.451 58.474 215.451H17.6836C16.6195 215.451 15.599 215.028 14.8465 214.275C14.0941 213.523 13.6714 212.503 13.6714 211.438C13.6714 210.374 14.0941 209.354 14.8465 208.601C15.599 207.849 16.6195 207.426 17.6836 207.426H46.7718" stroke="#263238" stroke-miterlimit="10"/>
<path d="M58.474 228.731H17.6836C16.6195 228.731 15.599 228.308 14.8465 227.556C14.0941 226.803 13.6714 225.783 13.6714 224.719C13.6714 223.655 14.0941 222.634 14.8465 221.882C15.599 221.129 16.6195 220.707 17.6836 220.707H58.474C59.5381 220.707 60.5586 221.129 61.311 221.882C62.0635 222.634 62.4862 223.655 62.4862 224.719C62.4862 225.783 62.0635 226.803 61.311 227.556C60.5586 228.308 59.5381 228.731 58.474 228.731Z" stroke="#263238" stroke-miterlimit="10"/>
<path d="M46.7717 180.779H67.1669V235.946H40.0847" stroke="#263238" stroke-miterlimit="10"/>
<path d="M18.0178 235.946H9.32471V180.779H42.0908" stroke="#263238" stroke-miterlimit="10"/>
<path d="M35.4039 235.946H21.3613" stroke="#263238" stroke-miterlimit="10"/>
<path d="M12.334 188.803H63.8236" stroke="#263238" stroke-miterlimit="10"/>
<path d="M73.1852 14.374H109.295C110.359 14.374 111.379 14.7967 112.132 15.5492C112.884 16.3016 113.307 17.3221 113.307 18.3862C113.307 19.4503 112.884 20.4708 112.132 21.2232C111.379 21.9757 110.359 22.3984 109.295 22.3984H68.5044C67.4403 22.3984 66.4198 21.9757 65.6673 21.2232C64.9149 20.4708 64.4922 19.4503 64.4922 18.3862C64.4922 17.3221 64.9149 16.3016 65.6673 15.5492C66.4198 14.7967 67.4403 14.374 68.5044 14.374H69.5074" stroke="#263238" stroke-miterlimit="10"/>
<path d="M101.27 27.6475H109.295C110.359 27.6475 111.379 28.0702 112.132 28.8226C112.884 29.575 113.307 30.5955 113.307 31.6596C113.307 32.7237 112.884 33.7442 112.132 34.4967C111.379 35.2491 110.359 35.6718 109.295 35.6718H68.5044C67.4403 35.6718 66.4198 35.2491 65.6673 34.4967C64.9149 33.7442 64.4922 32.7237 64.4922 31.6596C64.4922 30.5955 64.9149 29.575 65.6673 28.8226C66.4198 28.0702 67.4403 27.6475 68.5044 27.6475H97.5926" stroke="#263238" stroke-miterlimit="10"/>
<path d="M109.295 40.9209H68.5044C66.2885 40.9209 64.4922 42.7172 64.4922 44.9331C64.4922 47.1489 66.2885 48.9452 68.5044 48.9452H109.295C111.511 48.9452 113.307 47.1489 113.307 44.9331C113.307 42.7172 111.511 40.9209 109.295 40.9209Z" stroke="#263238" stroke-miterlimit="10"/>
<path d="M97.5927 1H117.988V56.1674H90.9058" stroke="#263238" stroke-miterlimit="10"/>
<path d="M68.8388 56.1674H60.1458V1H92.9119" stroke="#263238" stroke-miterlimit="10"/>
<path d="M86.2247 56.1675H72.1821" stroke="#263238" stroke-miterlimit="10"/>
<path d="M63.1548 9.02441H114.644" stroke="#263238" stroke-miterlimit="10"/>
<path d="M241.061 27.1994H219.977C219.766 27.1994 219.556 27.1578 219.361 27.0768C219.165 26.9958 218.988 26.8771 218.838 26.7274C218.688 26.5778 218.57 26.4001 218.489 26.2046C218.408 26.0091 218.366 25.7995 218.366 25.5879V19.4626C218.366 19.251 218.408 19.0414 218.489 18.8459C218.57 18.6504 218.688 18.4727 218.838 18.3231C218.988 18.1734 219.165 18.0547 219.361 17.9737C219.556 17.8928 219.766 17.8511 219.977 17.8511H248.23C248.657 17.8511 249.067 18.0209 249.369 18.3231C249.672 18.6253 249.841 19.0352 249.841 19.4626V21.8632" stroke="#263238" stroke-miterlimit="10"/>
<path d="M240.861 37.1628V24.0631C240.862 23.5067 241.084 22.9737 241.478 22.5803C241.871 22.1869 242.404 21.9651 242.96 21.9634H270.939C271.495 21.9651 272.028 22.1869 272.421 22.5803C272.815 22.9737 273.037 23.5067 273.038 24.0631V39.7507" stroke="#263238" stroke-miterlimit="10"/>
<path d="M273.038 52.6703V69.0133C273.037 69.5696 272.815 70.1027 272.421 70.496C272.028 70.8894 271.495 71.1112 270.939 71.113H242.96C242.404 71.1112 241.871 70.8894 241.478 70.496C241.084 70.1027 240.862 69.5696 240.861 69.0133V40.3062" stroke="#263238" stroke-miterlimit="10"/>
<path d="M242.847 29.6201H271.032" stroke="#263238" stroke-miterlimit="10"/>
<path d="M256.314 38.1191H271.032" stroke="#263238" stroke-miterlimit="10"/>
<path d="M242.847 38.1191H254.014" stroke="#263238" stroke-miterlimit="10"/>
<path d="M242.847 46.6187H271.032" stroke="#263238" stroke-miterlimit="10"/>
<path d="M265.984 55.1177H271.032" stroke="#263238" stroke-miterlimit="10"/>
<path d="M242.847 55.1177H263.443" stroke="#263238" stroke-miterlimit="10"/>
<path d="M242.847 63.6235H271.032" stroke="#263238" stroke-miterlimit="10"/>
<path d="M224.056 22.3115H239.416" stroke="#263238" stroke-miterlimit="10"/>
<path d="M132.766 216.34H103.705C103.115 216.34 102.55 216.107 102.132 215.69C101.715 215.274 101.48 214.71 101.478 214.12V205.675C101.478 205.084 101.712 204.518 102.13 204.1C102.548 203.682 103.114 203.448 103.705 203.448H142.643C143.233 203.448 143.8 203.682 144.217 204.1C144.635 204.518 144.869 205.084 144.869 205.675V208.985" stroke="#263238" stroke-miterlimit="10"/>
<path d="M132.492 230.082V212.027C132.492 211.259 132.797 210.523 133.34 209.98C133.883 209.437 134.619 209.132 135.387 209.132H173.951C174.719 209.132 175.455 209.437 175.998 209.98C176.541 210.523 176.847 211.259 176.847 212.027V233.66" stroke="#263238" stroke-miterlimit="10"/>
<path d="M176.833 251.453V273.982C176.833 274.75 176.528 275.486 175.985 276.029C175.442 276.572 174.706 276.877 173.938 276.877H135.374C134.606 276.877 133.87 276.572 133.327 276.029C132.784 275.486 132.479 274.75 132.479 273.982V234.408" stroke="#263238" stroke-miterlimit="10"/>
<path d="M135.227 219.677H174.085" stroke="#263238" stroke-miterlimit="10"/>
<path d="M153.79 231.393H174.085" stroke="#263238" stroke-miterlimit="10"/>
<path d="M135.227 231.393H150.627" stroke="#263238" stroke-miterlimit="10"/>
<path d="M135.227 243.115H174.085" stroke="#263238" stroke-miterlimit="10"/>
<path d="M167.124 254.83H174.085" stroke="#263238" stroke-miterlimit="10"/>
<path d="M135.227 254.83H163.62" stroke="#263238" stroke-miterlimit="10"/>
<path d="M135.227 266.546H174.085" stroke="#263238" stroke-miterlimit="10"/>
<path d="M109.328 209.606H130.499" stroke="#263238" stroke-miterlimit="10"/>
<path d="M182.624 252.617C180.957 252.619 179.355 251.971 178.157 250.812L174.018 246.706C173.75 246.426 173.601 246.054 173.601 245.666C173.602 245.279 173.753 244.907 174.022 244.629C174.291 244.35 174.657 244.187 175.044 244.172C175.431 244.158 175.809 244.295 176.098 244.553L176.913 245.315L172.747 236.749C172.648 236.533 172.592 236.3 172.583 236.062C172.573 235.825 172.611 235.588 172.694 235.365C172.817 235.04 173.033 234.759 173.314 234.556C173.596 234.353 173.931 234.237 174.278 234.223C174.625 234.208 174.968 234.296 175.266 234.476C175.563 234.655 175.801 234.918 175.95 235.231L177.502 238.287C177.778 237.936 178.173 237.698 178.612 237.618C179.2 237.57 179.785 237.738 180.257 238.093C180.543 237.728 180.961 237.488 181.42 237.424C181.909 237.375 182.399 237.492 182.811 237.759C182.905 237.519 183.075 237.318 183.295 237.185C183.515 237.052 183.773 236.995 184.028 237.023C184.307 237.047 184.576 237.14 184.809 237.295C185.043 237.449 185.234 237.659 185.366 237.906L188.308 243.316C188.805 244.294 189.043 245.383 189 246.48C188.956 247.576 188.632 248.643 188.059 249.579C187.485 250.515 186.681 251.288 185.724 251.824C184.767 252.361 183.688 252.643 182.591 252.644L182.624 252.617ZM175.074 244.813H174.967C174.813 244.833 174.668 244.895 174.547 244.993C174.426 245.091 174.336 245.221 174.286 245.368C174.236 245.515 174.228 245.674 174.263 245.825C174.299 245.976 174.376 246.115 174.486 246.224L178.625 250.323C179.601 251.275 180.883 251.848 182.243 251.941C183.602 252.034 184.95 251.641 186.046 250.831C187.143 250.022 187.916 248.849 188.227 247.523C188.538 246.196 188.368 244.802 187.746 243.59L184.817 238.193C184.739 238.044 184.624 237.917 184.484 237.824C184.344 237.73 184.183 237.674 184.015 237.658C183.741 237.658 183.447 237.705 183.346 238.327L183.246 238.936L182.791 238.521C182.442 238.211 181.987 238.046 181.521 238.06C181.331 238.099 181.152 238.179 180.996 238.295C180.84 238.41 180.711 238.558 180.618 238.728L180.404 239.069L180.103 238.795C179.727 238.446 179.232 238.255 178.719 238.26C178.507 238.312 178.31 238.411 178.142 238.55C177.974 238.689 177.84 238.864 177.749 239.063L177.428 239.618L175.342 235.498C175.217 235.232 174.991 235.027 174.715 234.927C174.438 234.828 174.134 234.842 173.867 234.967C173.601 235.092 173.396 235.317 173.296 235.594C173.197 235.87 173.211 236.175 173.336 236.441L178.986 248.177L175.643 245.021C175.487 244.881 175.284 244.806 175.074 244.813Z" fill="#263238"/>
<path d="M179 242.874C178.934 242.873 178.87 242.853 178.815 242.816C178.761 242.779 178.718 242.727 178.692 242.667L177.154 239.049C177.121 238.967 177.121 238.874 177.154 238.792C177.188 238.709 177.253 238.643 177.335 238.608C177.416 238.574 177.508 238.575 177.589 238.609C177.671 238.642 177.735 238.707 177.769 238.788L179.307 242.406C179.325 242.446 179.335 242.49 179.335 242.534C179.336 242.578 179.328 242.622 179.312 242.663C179.296 242.704 179.272 242.741 179.241 242.773C179.211 242.805 179.174 242.83 179.133 242.847C179.091 242.866 179.046 242.875 179 242.874Z" fill="#263238"/>
<path d="M181.681 242.078C181.616 242.078 181.552 242.06 181.497 242.024C181.443 241.988 181.4 241.937 181.374 241.878L180.036 238.701C180.019 238.661 180.009 238.617 180.008 238.573C180.007 238.529 180.015 238.486 180.031 238.444C180.047 238.403 180.072 238.366 180.102 238.334C180.133 238.303 180.17 238.277 180.21 238.26C180.293 238.228 180.385 238.229 180.467 238.263C180.549 238.296 180.615 238.36 180.651 238.441L181.989 241.617C182.006 241.657 182.015 241.701 182.016 241.744C182.016 241.788 182.007 241.832 181.991 241.872C181.974 241.913 181.949 241.95 181.918 241.98C181.886 242.011 181.849 242.035 181.808 242.052C181.769 242.07 181.725 242.08 181.681 242.078Z" fill="#263238"/>
<path d="M184.309 241.383C184.245 241.384 184.183 241.366 184.129 241.332C184.076 241.297 184.034 241.247 184.008 241.189L182.718 238.414C182.699 238.374 182.688 238.332 182.685 238.288C182.683 238.244 182.69 238.2 182.705 238.159C182.72 238.118 182.743 238.08 182.773 238.048C182.802 238.016 182.838 237.99 182.878 237.972C182.918 237.953 182.961 237.942 183.006 237.94C183.05 237.938 183.094 237.944 183.136 237.959C183.177 237.974 183.216 237.997 183.248 238.027C183.281 238.057 183.308 238.093 183.326 238.133L184.617 240.908C184.643 240.959 184.654 241.016 184.651 241.073C184.648 241.13 184.63 241.186 184.599 241.234C184.568 241.282 184.525 241.321 184.474 241.347C184.423 241.373 184.366 241.385 184.309 241.383Z" fill="#263238"/>
<path d="M172.82 7.8905L166.2 14.5103L172.82 21.13L179.44 14.5103L172.82 7.8905Z" stroke="#263238" stroke-linecap="round" stroke-linejoin="round"/>
<path d="M287.901 80.7728L281.281 87.3926L287.901 94.0123L294.521 87.3926L287.901 80.7728Z" stroke="#263238" stroke-linecap="round" stroke-linejoin="round"/>
<path d="M85.2877 241.266L78.668 247.886L85.2877 254.505L91.9075 247.886L85.2877 241.266Z" stroke="#263238" stroke-linecap="round" stroke-linejoin="round"/>
<path d="M160.517 20.0208L156.904 23.6333L160.517 27.2458L164.129 23.6333L160.517 20.0208Z" stroke="#263238" stroke-linecap="round" stroke-linejoin="round"/>
<path d="M157.176 195.891L153.563 199.503L157.176 203.116L160.788 199.503L157.176 195.891Z" stroke="#263238" stroke-linecap="round" stroke-linejoin="round"/>
<path d="M123.337 231.6C124.815 231.6 126.012 230.402 126.012 228.925C126.012 227.448 124.815 226.25 123.337 226.25C121.86 226.25 120.663 227.448 120.663 228.925C120.663 230.402 121.86 231.6 123.337 231.6Z" stroke="#263238" stroke-linecap="round" stroke-linejoin="round"/>
<path d="M208.931 202.177C210.408 202.177 211.605 200.98 211.605 199.502C211.605 198.025 210.408 196.828 208.931 196.828C207.453 196.828 206.256 198.025 206.256 199.502C206.256 200.98 207.453 202.177 208.931 202.177Z" stroke="#263238" stroke-linecap="round" stroke-linejoin="round"/>
<path d="M283.156 40.353C284.633 40.353 285.831 39.1554 285.831 37.6782C285.831 36.201 284.633 35.0034 283.156 35.0034C281.678 35.0034 280.481 36.201 280.481 37.6782C280.481 39.1554 281.678 40.353 283.156 40.353Z" stroke="#263238" stroke-linecap="round" stroke-linejoin="round"/>
<path d="M4.97825 48.6113C6.45549 48.6113 7.65303 47.4137 7.65303 45.9365C7.65303 44.4593 6.45549 43.2617 4.97825 43.2617C3.50101 43.2617 2.30347 44.4593 2.30347 45.9365C2.30347 47.4137 3.50101 48.6113 4.97825 48.6113Z" stroke="#263238" stroke-linecap="round" stroke-linejoin="round"/>
<path d="M86.1177 30.5562L80.2666 20.6662L26.4165 17.1221V27.0589V30.6364V195.985L223.695 182.992V38.6073L86.1177 30.5562Z" fill="#263238"/>
<path d="M222.585 179.99L28.1284 192.274V31.7134L222.585 42.4393V179.99Z" fill="#E5E5E5"/>
<mask id="mask0_147_579" style="mask-type:luminance" maskUnits="userSpaceOnUse" x="28" y="31" width="195" height="162">
<path d="M222.585 179.99L28.1284 192.274V31.7134L222.585 42.4393V179.99Z" fill="white"/>
</mask>
<g mask="url(#mask0_147_579)">
<path opacity="0.17" d="M223.401 180.98L219.529 181.227V41.0884L223.401 41.309V180.98Z" fill="black"/>
<path opacity="0.17" d="M223.401 179.843L219.529 180.083V125.819L223.401 125.752V179.843Z" fill="black"/>
<path d="M222.806 48.0762L27.2256 38.233V29.4932L222.806 40.5935V48.0762Z" fill="#FFED4F" stroke="#263238" stroke-miterlimit="10"/>
</g>
<path d="M222.585 179.99L28.1284 192.274V31.7134L222.585 42.4393V179.99Z" stroke="#263238" stroke-linecap="round" stroke-linejoin="round"/>
<path opacity="0.2" d="M212.943 67.5285L182.604 66.3784H182.57L150.627 65.168L150.593 65.1613L116.918 63.8908L116.878 63.8841L81.3299 62.54H81.2897L43.689 61.1157V73.413V186.148L212.869 176.874V78.2811H212.943V67.5285Z" fill="black"/>
<path d="M95.0246 70.2768L57.1296 69.2336V56.8828L95.0246 58.267V70.2768Z" fill="#FFED4F" stroke="#263238" stroke-miterlimit="10"/>
<path d="M84.2386 65.068L68.3638 64.5731V62.2661L84.2386 62.7877V65.068Z" fill="#7A7A7A"/>
<path d="M130.907 71.26L95.0649 70.277V58.2739L130.907 59.5779V71.26Z" fill="#FFED4F" stroke="#263238" stroke-miterlimit="10"/>
<path d="M164.897 72.1892L130.947 71.2598V59.5776L164.897 60.8147V72.1892Z" fill="#FFED4F" stroke="#263238" stroke-miterlimit="10"/>
<path d="M197.135 73.0718V61.9915L164.93 60.8213V72.1891L57.1296 69.2335V182.417L227.694 172.915V73.9144L197.135 73.0718Z" fill="white" stroke="#263238" stroke-linecap="round" stroke-linejoin="round"/>
<path d="M227.761 73.9145L197.175 73.072V61.9917L227.761 63.1084V73.9145Z" fill="#FFED4F" stroke="#263238" stroke-miterlimit="10"/>
<path d="M222.94 162.49L136.537 166.536V92.3975L222.94 93.3537V162.49Z" fill="white" stroke="#263238" stroke-linecap="round" stroke-linejoin="round"/>
<path d="M181.601 93.1795L160.142 92.9521V101.806L181.601 101.886V93.1795Z" fill="#FFED4F"/>
<path d="M209.813 112.231L216.406 112.197" stroke="#263238" stroke-linecap="round" stroke-linejoin="round"/>
<path d="M170.614 112.411L205.801 112.251" stroke="#263238" stroke-linecap="round" stroke-linejoin="round"/>
<path d="M142.021 112.545L166.769 112.432" stroke="#263238" stroke-linecap="round" stroke-linejoin="round"/>
<path d="M188.254 116.979L216.406 116.745" stroke="#263238" stroke-linecap="round" stroke-linejoin="round"/>
<path d="M172.313 117.112L183.68 117.019" stroke="#263238" stroke-linecap="round" stroke-linejoin="round"/>
<path d="M142.021 117.373L167.197 117.159" stroke="#263238" stroke-linecap="round" stroke-linejoin="round"/>
<path d="M158.571 121.994L216.406 121.285" stroke="#263238" stroke-linecap="round" stroke-linejoin="round"/>
<path d="M142.021 122.194L152.9 122.061" stroke="#263238" stroke-linecap="round" stroke-linejoin="round"/>
<path d="M202.578 126.053L216.406 125.826" stroke="#263238" stroke-linecap="round" stroke-linejoin="round"/>
<path d="M175.282 126.488L197.703 126.126" stroke="#263238" stroke-linecap="round" stroke-linejoin="round"/>
<path d="M142.021 127.022L170.614 126.561" stroke="#263238" stroke-linecap="round" stroke-linejoin="round"/>
<path d="M167.197 131.349L216.406 130.373" stroke="#263238" stroke-linecap="round" stroke-linejoin="round"/>
<path d="M142.021 131.844L162.463 131.442" stroke="#263238" stroke-linecap="round" stroke-linejoin="round"/>
<path d="M209.813 134.873L216.406 134.719" stroke="#263238" stroke-linecap="round" stroke-linejoin="round"/>
<path d="M170.614 135.789L205.801 134.967" stroke="#263238" stroke-linecap="round" stroke-linejoin="round"/>
<path d="M142.021 136.458L166.769 135.883" stroke="#263238" stroke-linecap="round" stroke-linejoin="round"/>
<path d="M188.254 140.029L216.406 139.26" stroke="#263238" stroke-linecap="round" stroke-linejoin="round"/>
<path d="M172.313 140.457L183.68 140.149" stroke="#263238" stroke-linecap="round" stroke-linejoin="round"/>
<path d="M142.021 141.286L167.197 140.597" stroke="#263238" stroke-linecap="round" stroke-linejoin="round"/>
<path d="M158.571 145.599L216.406 143.807" stroke="#263238" stroke-linecap="round" stroke-linejoin="round"/>
<path d="M142.021 146.107L152.9 145.773" stroke="#263238" stroke-linecap="round" stroke-linejoin="round"/>
<path d="M202.578 148.829L216.406 148.347" stroke="#263238" stroke-linecap="round" stroke-linejoin="round"/>
<path d="M175.282 149.778L197.703 148.996" stroke="#263238" stroke-linecap="round" stroke-linejoin="round"/>
<path d="M142.021 150.935L170.614 149.938" stroke="#263238" stroke-linecap="round" stroke-linejoin="round"/>
<path d="M167.197 154.787L216.406 152.888" stroke="#263238" stroke-linecap="round" stroke-linejoin="round"/>
<path d="M142.021 155.756L162.463 154.967" stroke="#263238" stroke-linecap="round" stroke-linejoin="round"/>
<path d="M139.092 101.973L222.197 102.267" stroke="#263238" stroke-linecap="round" stroke-linejoin="round"/>
<path d="M160.142 92.9521V101.806" stroke="#263238" stroke-linecap="round" stroke-linejoin="round"/>
<path d="M181.601 93.1865V101.886" stroke="#263238" stroke-linecap="round" stroke-linejoin="round"/>
<path d="M202.344 93.4072V101.967" stroke="#263238" stroke-linecap="round" stroke-linejoin="round"/>
<path d="M178.11 98.3354L164.402 98.2417V96.0952L178.11 96.2089V98.3354Z" fill="#263238"/>
<path d="M155.849 98.1885L141.646 98.0948V95.9082L155.849 96.0286V98.1885Z" fill="#CCCCCC"/>
<path d="M199.181 98.4759L185.934 98.389V96.2759L199.181 96.3896V98.4759Z" fill="#CCCCCC"/>
<path d="M218.927 98.6094L206.115 98.5225V96.4429L218.927 96.5499V98.6094Z" fill="#CCCCCC"/>
<path d="M130.332 166.823L64.4185 169.906V78.7427L130.332 80.0934V166.823Z" fill="white" stroke="#263238" stroke-linecap="round" stroke-linejoin="round"/>
<path d="M120.422 66.1977L105.403 65.7296V63.4761L120.422 63.9709V66.1977Z" fill="#7A7A7A"/>
<path d="M154.906 67.268L140.677 66.8266V64.6333L154.906 65.1014V67.268Z" fill="#7A7A7A"/>
<path d="M188.201 68.3041L174.713 67.8828V65.7563L188.201 66.1977V68.3041Z" fill="#7A7A7A"/>
<path d="M219.215 69.2672L206.409 68.8659V66.793L219.215 67.2143V69.2672Z" fill="#7A7A7A"/>
<path d="M254.903 290.378C276.415 290.378 293.855 287.848 293.855 284.727C293.855 281.606 276.415 279.077 254.903 279.077C233.391 279.077 215.952 281.606 215.952 284.727C215.952 287.848 233.391 290.378 254.903 290.378Z" fill="#FFED4F"/>
<path opacity="0.5" d="M254.903 290.378C276.415 290.378 293.855 287.848 293.855 284.727C293.855 281.606 276.415 279.077 254.903 279.077C233.391 279.077 215.952 281.606 215.952 284.727C215.952 287.848 233.391 290.378 254.903 290.378Z" fill="white"/>
<path d="M235.11 72.4497C235.11 72.4497 232.963 80.4272 233.418 81.1895C233.873 81.9519 234.956 81.6509 234.341 83.1956C233.725 84.7403 232.335 87.6425 232.656 88.8662C232.977 90.0899 234.662 91.0127 234.662 91.0127C234.662 91.0127 235.431 96.5361 236.193 97.606C236.955 98.6759 241.101 98.0674 241.101 98.0674L241.409 102.213L253.679 101.444L253.218 94.0887L252.603 71.353L235.11 72.4497Z" fill="white" stroke="#263238" stroke-linecap="round" stroke-linejoin="round"/>
<path d="M249.834 66.3379C249.072 66.4516 243.234 66.3379 238.634 67.1003C234.033 67.8626 232.656 68.1769 232.809 70.1696C232.963 72.1623 232.502 72.9313 234.187 73.6936C234.902 74.0845 235.681 74.3449 236.487 74.4626C236.487 74.4626 236.026 76.6091 235.872 78.1471C235.718 79.6851 238.48 81.3635 238.48 81.3635C238.48 81.3635 238.326 83.6639 238.634 84.4329C238.941 85.2019 239.71 85.3557 240.172 84.7405C240.633 84.1253 240.934 81.2097 241.395 82.4401C241.857 83.6705 243.696 92.8651 244.926 93.9417C246.157 95.0183 251.673 94.4031 253.205 94.0955C254.736 93.7879 257.651 87.3484 259.036 83.5101C260.42 79.6717 259.798 72.9313 257.805 69.862C255.812 66.7927 251.827 66.0303 249.834 66.3379Z" fill="#263238" stroke="#263238" stroke-linecap="round" stroke-linejoin="round"/>
<path d="M240.078 82.3599C240.282 83.7874 240.407 85.2251 240.453 86.6663C240.453 88.3515 239.329 89.2876 240.078 90.0098C240.827 90.732 241.416 90.3843 241.95 89.0737C242.563 87.5279 242.819 85.8639 242.699 84.2055C242.512 82.9217 242.325 80.1131 240.078 82.3599Z" fill="white" stroke="#263238" stroke-linecap="round" stroke-linejoin="round"/>
<path d="M238.48 101.765L235.136 107.897C235.136 107.897 243.569 105.443 248.169 105.443C251.409 105.501 254.64 105.81 257.832 106.366L255.686 100.381C255.686 100.381 244.003 99.1573 238.48 101.765Z" fill="#FFED4F" stroke="#263238" stroke-linecap="round" stroke-linejoin="round"/>
<path d="M270.23 182.644C270.23 182.644 270.23 187.994 269.768 190.314C269.307 192.634 266.244 196.138 265.014 196.754C263.783 197.369 262.252 197.523 261.945 196.754C261.637 195.985 261.182 196.292 261.644 192.307C262.105 188.321 263.763 180.651 263.763 180.651L270.23 182.644Z" fill="white" stroke="#263238" stroke-linecap="round" stroke-linejoin="round"/>
<path d="M271.306 177.736L270.23 182.644C268.91 182.921 267.554 182.973 266.217 182.798C265.647 182.709 265.114 182.46 264.679 182.08C264.245 181.7 263.927 181.205 263.763 180.651L264.225 176.358L271.306 177.736Z" fill="#FFED4F" stroke="#263238" stroke-linecap="round" stroke-linejoin="round"/>
<path d="M270.551 111.736C270.551 111.736 272.697 124.769 274.075 134.431C275.452 144.094 275.753 153.295 275.445 157.896C275.138 162.497 273.299 177.288 272.684 178.351C272.069 179.415 267.929 179.883 266.244 179.114C264.559 178.345 263.763 177.435 263.763 174.513C263.763 171.591 265.295 144.422 265.295 144.422L270.551 111.736Z" fill="#FFED4F" stroke="#263238" stroke-linecap="round" stroke-linejoin="round"/>
<path d="M237.417 280.127C236.81 280.131 236.213 280.282 235.678 280.568C234.769 281.049 230.823 282.133 228.282 283.035C224.317 284.446 221.221 283.704 221.542 284.721C221.863 285.737 228.048 287.837 231.626 287.89C235.203 287.944 236.929 287.048 238.64 287.081C240.352 287.114 239.088 287.944 241.937 288.265C244.786 288.586 245.715 288.599 246.712 287.041C247.708 285.483 248.263 285.082 247.949 283.116V283.089C247.793 282.24 247.342 281.475 246.674 280.928C246.007 280.382 245.167 280.091 244.304 280.107L237.417 280.127Z" fill="#263238" stroke="#263238" stroke-linecap="round" stroke-linejoin="round"/>
<path d="M259.577 278.228C259.047 278.213 258.524 278.36 258.079 278.649C257.304 279.137 253.9 280.167 251.72 281.056C248.31 282.44 245.588 281.518 245.902 282.641C246.217 283.764 249.874 285.316 252.991 285.47C254.678 285.574 256.371 285.511 258.046 285.282C261.389 285.095 259.27 286.285 260.48 286.78C261.327 287.047 262.213 287.174 263.101 287.155C266.659 287.342 267.113 287.623 267.909 285.984C268.705 284.346 269.193 283.932 268.852 281.798V281.752C268.538 279.853 267.127 278.462 265.582 278.408L259.577 278.228Z" fill="#263238" stroke="#263238" stroke-linecap="round" stroke-linejoin="round"/>
<path d="M227.747 167.003C227.747 167.003 228.363 188.475 228.363 195.684C228.363 202.892 230.201 235.465 232.656 247.274C235.11 259.083 236.487 275.954 236.487 277.793C236.487 279.632 235.872 280.093 237.102 281.324C238.333 282.554 242.927 284.848 244.619 284.079C246.31 283.31 247.226 280.401 247.226 280.401C247.226 280.401 247.226 264.453 247.681 254.021C248.136 243.589 247.38 229.948 247.38 229.948C247.38 229.948 253.358 257.558 255.043 263.075C256.729 268.592 258.113 278.615 258.42 280.608C258.728 282.601 260.079 282.668 261.764 282.668C263.823 282.668 266.371 282.4 267.287 280.869C268.203 279.338 266.217 263.229 266.217 256.796C266.217 250.363 261.155 210.415 261.617 200.625C262.078 190.836 264.96 173.791 264.071 168.729C263.518 165.725 263.209 162.681 263.148 159.628C263.148 159.628 231.579 155.957 227.747 167.003Z" fill="#5E5E5E" stroke="#263238" stroke-linecap="round" stroke-linejoin="round"/>
<path d="M236.347 107.135C236.347 107.135 229.486 110.044 226.27 111.582C224.772 112.33 223.236 112.999 221.669 113.588C221.669 113.588 226.838 162.403 226.838 165.017C226.838 167.632 226.684 167.779 227.607 168.548C228.53 169.317 233.284 169.665 241.723 169.511C250.162 169.357 260.734 167.625 261.503 167.625C262.122 167.58 262.722 167.39 263.254 167.071C263.786 166.751 264.235 166.311 264.566 165.786C265.489 164.409 270.41 112.358 270.584 111.749C270.758 111.141 258.454 106.687 257.377 106.399C256.301 106.112 250.135 101.919 236.347 107.135Z" fill="#FFED4F" stroke="#263238" stroke-linecap="round" stroke-linejoin="round"/>
<path d="M260.42 138.403C256.033 144.716 249.105 153.897 243.702 157.374" stroke="#263238" stroke-linecap="round" stroke-linejoin="round"/>
<path d="M264.699 131.964C264.699 131.964 263.904 133.241 262.573 135.234" stroke="#263238" stroke-linecap="round" stroke-linejoin="round"/>
<path d="M252.001 153.783C252.001 153.783 245.929 159.307 240.961 162.068" stroke="#263238" stroke-linecap="round" stroke-linejoin="round"/>
<path d="M260.567 253.867C262.203 255.585 264.132 256.998 266.264 258.04C266.264 257.592 266.264 257.17 266.264 256.783C266.264 250.343 261.202 210.402 261.664 200.612C261.744 198.827 261.911 196.801 262.118 194.654C261.953 194.22 261.749 193.801 261.51 193.404C259.006 189.514 256.753 185.469 254.763 181.293L262.727 188.91C262.794 188.335 262.861 187.753 262.921 187.178C260.801 183.366 258.013 178.137 257.825 176.539L248.464 181.594C248.464 181.594 247.24 218.005 247.394 229.968C247.394 229.968 248.296 234.147 249.5 239.57C252.395 246.137 257.564 250.758 260.567 253.867Z" fill="#263238" stroke="#263238" stroke-linecap="round" stroke-linejoin="round"/>
<path d="M229.593 169.411C230.112 171.316 230.783 173.176 231.599 174.974C232.189 176.213 233.155 177.234 234.361 177.89" stroke="#263238" stroke-linecap="round" stroke-linejoin="round"/>
<path d="M239.483 275.479C239.684 277.833 239.657 280.2 239.403 282.548" stroke="#263238" stroke-linecap="round" stroke-linejoin="round"/>
<path d="M238.801 266.693C238.941 268.699 239.068 270.531 239.182 271.996" stroke="#263238" stroke-linecap="round" stroke-linejoin="round"/>
<path d="M234.829 186.931C235.21 202.311 236.126 236.066 236.949 243.589C237.544 249.046 238.092 256.582 238.54 262.981" stroke="#263238" stroke-linecap="round" stroke-linejoin="round"/>
<path d="M234.287 169.645C234.133 170.106 234.648 179.268 234.648 179.268C234.648 179.268 234.682 180.826 234.749 183.454" stroke="#263238" stroke-linecap="round" stroke-linejoin="round"/>
<path d="M202.243 125.37C202.243 125.37 202.838 124.334 203.721 122.562C204.604 120.79 204.463 118.55 204.463 117.393C204.463 116.236 205.801 115.768 205.801 114.437C205.801 113.106 203.882 113.26 202.852 114.143C201.822 115.026 201.514 117.687 201.514 117.687C201.514 117.687 199.876 114.919 199.007 112.966C198.218 111.207 197.134 108.178 195.663 107.737C194.192 107.295 194.259 109.121 194.413 109.562C194.651 110.42 194.955 111.259 195.322 112.07C195.663 112.739 196.352 114.745 196.352 114.745C196.352 114.745 194.286 113.12 193.55 113.12C193.364 113.128 193.184 113.184 193.026 113.283C192.868 113.381 192.738 113.519 192.648 113.682C192.559 113.845 192.513 114.029 192.515 114.215C192.517 114.401 192.568 114.584 192.661 114.745C192.661 114.745 190.889 115.48 191.324 116.664C191.758 117.847 191.919 118.289 191.919 118.289C191.919 118.289 191.471 118.877 191.919 120.355C192.367 121.833 194.279 124.367 195.015 125.524C195.44 126.212 195.991 126.813 196.64 127.296L202.243 125.37Z" fill="white" stroke="#263238" stroke-linecap="round" stroke-linejoin="round"/>
<path d="M192.668 114.738C193.14 115.464 193.689 116.137 194.306 116.744" stroke="#263238" stroke-linecap="round" stroke-linejoin="round"/>
<path d="M191.932 118.282C192.209 118.768 192.546 119.218 192.935 119.62" stroke="#263238" stroke-linecap="round" stroke-linejoin="round"/>
<path d="M197.683 133.054L195.075 127.376C195.59 126.637 196.25 126.01 197.016 125.535C197.782 125.06 198.637 124.747 199.528 124.615C202.745 124 203.206 124.615 203.206 124.615L204.891 130.446C204.891 130.446 199.375 130.907 197.683 133.054Z" fill="#FFED4F" stroke="#263238" stroke-linecap="round" stroke-linejoin="round"/>
<path d="M213.33 143.479C213.33 143.479 208.576 135.354 207.345 132.439C206.115 129.523 204.437 128.754 201.675 129.062C198.913 129.369 196.459 132.285 196.459 134.411C196.459 136.538 206.276 157.722 206.737 158.952C207.198 160.183 210.569 160.484 212.869 159.106C215.169 157.729 215.477 150.233 213.33 143.479Z" fill="#FFED4F" stroke="#263238" stroke-linecap="round" stroke-linejoin="round"/>
<path d="M221.635 113.575C221.635 113.575 215.31 132.225 214.24 135.133C213.17 138.042 208.221 151.303 206.884 153.91C205.547 156.518 206.737 160.965 210.896 161.58C215.055 162.196 215.651 160.965 217.797 157.896C219.944 154.827 225.24 147.157 225.24 147.157C225.24 147.157 222.879 117.099 221.635 113.575Z" fill="#FFED4F" stroke="#263238" stroke-linecap="round" stroke-linejoin="round"/>
</svg>
